<svg viewBox="5.5 -662 902 902" xmlns="http://www.w3.org/2000/svg">
	<defs>
		<linearGradient id="tz-gradient" x1="0" y1="0" x2="1" y2="1">
			<stop offset="0%" stop-color="#38bdf8" />
			<stop offset="100%" stop-color="#6366f1" />
		</linearGradient>
	</defs>
	<path fill="url(#tz-gradient)" aria-label="ꜩ" d="M308-109L308-109Q333-109 356-114Q379-119 402-126L402-126L402-15Q378-5 342.50 2.50Q307 10 265 10L265 10Q216 10 177.50-6Q139-22 116.50-61.50Q94-101 94-171L94-171L94-434L23-434L23-497L105-547L148-662L243-662L243-546L868-546L868-449L652-247Q740-237 792-202.50Q844-168 867-116Q890-64 890-1L890-1Q890 67 858 122Q826 177 760 208.50Q694 240 592 240L592 240Q469 240 376 201L376 201L376 73Q424 96 479.50 108Q535 120 581 120L581 120Q642 120 676 102Q710 84 724.50 54.50Q739 25 739-8L739-8Q739-45 722-74.50Q705-104 662.50-121.50Q620-139 544-139L544-139L486-139L486-245L687-434L243-434L243-171Q243-140 261-124.50Q279-109 308-109Z"/>
</svg>
