<?xml version="1.0" encoding="UTF-8" standalone="no"?>
<svg
   viewBox="0 0 512 512"
   version="1.1"
   id="svg2"
   xmlns="http://www.w3.org/2000/svg"
   xmlns:svg="http://www.w3.org/2000/svg">
  <defs
     id="defs2">
    <linearGradient
       id="tz-gradient"
       x1="0"
       y1="0"
       x2="1"
       y2="1">
      <stop
         offset="0%"
         stop-color="#38bdf8"
         id="stop1" />
      <stop
         offset="100%"
         stop-color="#6366f1"
         id="stop2" />
    </linearGradient>
  </defs>
  <path
     d="M 104.83789,123.92969 V 52.503906 h 80.41016 v 71.425784 h 218.99414 v 56.15234 l -93.88672,97.48047 q 36.16211,2.02148 55.70312,7.1875 27.85157,7.41211 47.39258,32.79297 17.74414,23.13476 17.74414,55.0293 0,49.86328 -38.18359,75.69335 -38.4082,26.05469 -111.40625,26.05469 -27.40235,0 -51.88477,-4.04297 -25.83008,-4.26757 -51.21093,-12.57812 v -66.70899 q 23.80859,11.9043 48.0664,18.19336 24.25781,6.28907 47.16797,6.28907 34.36523,0 52.55859,-11.9043 18.41797,-11.9043 18.41797,-34.14063 0,-22.91015 -18.86718,-34.81445 -18.64258,-11.67969 -55.25391,-11.67969 h -9.43359 v 52.5586 h -68.95508 q -47.61719,0 -67.60742,-19.76563 -19.76563,-19.99023 -19.76563,-67.60742 V 181.42969 H 64.857422 v -57.5 z m 80.41016,57.5 v 106.68945 q 0,17.51953 6.96289,23.80859 6.96289,6.06446 27.62695,6.06446 h 8.75977 V 267.9043 l 83.10546,-86.47461 z"
     id="text2"
     style="font-weight:700;font-size:460px;font-family:Inter, sans-serif;dominant-baseline:central;text-anchor:middle;fill:url(#tz-gradient)"
     aria-label="ꜩ" />
</svg>
