<?xml version="1.0" standalone="no"?>
<!DOCTYPE svg PUBLIC "-//W3C//DTD SVG 20010904//EN"
 "http://www.w3.org/TR/2001/REC-SVG-20010904/DTD/svg10.dtd">
<svg version="1.0" xmlns="http://www.w3.org/2000/svg"
 width="888.000000pt" height="888.000000pt" viewBox="0 0 888.000000 888.000000"
 preserveAspectRatio="xMidYMid meet">
<metadata>
Created by potrace 1.14, written by Peter Selinger 2001-2017
</metadata>
<g transform="translate(0.000000,888.000000) scale(0.100000,-0.100000)"
fill="#000000" stroke="none">
<path d="M929 8868 c0 -7 -2 -371 -2 -808 l-2 -795 -378 -3 -377 -2 2 -297 3
-297 365 -2 c201 0 370 -2 376 -3 7 -1 10 -503 11 -1673 0 -920 3 -1704 6
-1743 10 -118 24 -250 27 -250 1 0 3 -16 5 -36 5 -48 42 -201 67 -274 20 -61
78 -196 88 -205 3 -3 14 -23 25 -44 11 -22 25 -44 30 -50 6 -6 18 -21 26 -33
30 -44 105 -119 160 -159 61 -46 258 -146 271 -138 4 3 8 1 8 -4 0 -5 6 -9 13
-10 6 0 44 -10 82 -22 39 -12 77 -23 85 -25 8 -2 17 -4 20 -5 3 -1 8 -2 12 -1
4 0 18 -3 31 -8 13 -5 40 -12 60 -15 20 -3 54 -9 75 -12 20 -4 46 -8 57 -9 11
-1 20 -3 20 -4 0 -1 25 -4 55 -7 30 -2 71 -7 90 -9 94 -13 262 -20 531 -20
l296 0 1 -753 c0 -414 3 -756 6 -759 4 -4 13 -8 22 -9 8 -1 45 -11 82 -22 37
-11 83 -24 102 -28 42 -9 41 -9 60 -17 13 -5 71 -19 77 -18 2 0 17 -5 35 -11
18 -5 42 -11 53 -13 11 -2 56 -13 100 -25 86 -22 103 -26 150 -35 17 -2 46 -9
65 -15 19 -5 53 -12 75 -16 22 -4 45 -8 50 -10 68 -15 208 -42 255 -49 14 -2
39 -6 55 -9 17 -3 44 -8 60 -10 17 -3 39 -8 51 -10 12 -2 45 -7 75 -11 30 -3
68 -9 84 -11 17 -3 44 -7 60 -8 37 -4 139 -17 180 -22 17 -3 59 -7 95 -9 36
-3 83 -7 105 -10 177 -20 808 -27 1050 -11 210 14 214 14 258 20 23 3 69 8
101 12 33 3 68 7 79 10 11 2 45 6 76 10 31 3 65 8 76 11 32 7 60 12 128 24 34
6 118 24 187 41 69 17 132 31 140 33 8 1 22 5 30 8 13 4 245 81 275 91 10 3
30 11 93 38 15 6 29 12 32 12 3 1 31 14 62 29 31 15 62 27 67 27 6 0 11 5 11
10 0 6 8 10 18 10 10 0 22 4 27 9 6 6 35 23 65 39 48 26 195 119 225 143 5 5
35 28 65 51 87 67 89 69 183 163 79 79 186 212 241 298 31 51 106 199 106 212
0 7 6 18 14 24 7 6 17 26 21 44 4 17 9 34 10 37 1 3 4 12 8 20 6 17 30 90 33
105 14 57 44 197 48 225 33 191 28 600 -9 770 -3 14 -8 36 -11 50 -18 83 -18
85 -33 140 -7 25 -21 70 -32 100 -11 30 -22 62 -24 71 -2 8 -22 56 -46 105
-23 49 -43 92 -43 96 -1 4 -7 13 -13 19 -7 7 -13 17 -13 21 0 11 -81 135 -135
207 -71 97 -208 241 -298 314 -26 21 -52 43 -59 50 -7 7 -36 28 -63 47 -28 19
-51 38 -53 42 -2 4 -7 8 -12 8 -5 0 -44 21 -87 48 -67 40 -154 84 -278 138
-43 19 -167 65 -185 69 -8 2 -16 4 -17 5 -2 2 -6 3 -10 4 -33 9 -105 31 -135
42 -21 8 -38 12 -38 9 0 -2 -12 0 -26 5 -28 11 -222 54 -288 64 -21 4 -41 8
-45 11 -4 2 -29 6 -57 9 -89 10 -139 16 -159 21 -21 4 -76 11 -159 20 -27 3
-51 7 -54 9 -3 3 61 94 121 171 11 15 109 147 132 179 11 15 41 55 66 89 158
211 345 463 348 471 4 9 28 39 49 61 6 8 12 16 12 19 0 3 7 14 15 23 15 18
107 143 314 423 63 85 118 157 123 158 4 2 8 10 8 18 0 8 5 14 10 14 6 0 10 4
10 10 0 5 9 20 19 32 20 25 146 193 171 229 8 12 29 39 45 60 17 20 48 63 70
95 22 31 45 62 50 68 6 6 45 58 87 116 42 58 86 115 98 128 11 12 18 22 14 22
-3 0 -1 7 6 15 10 12 15 255 11 552 l-1 43 -2712 2 -2713 3 0 805 0 805 -867
3 c-691 2 -868 0 -869 -10z m5121 -2205 c0 -4 -14 -21 -37 -48 -7 -7 -13 -16
-13 -20 0 -3 -5 -11 -10 -18 -6 -7 -24 -30 -40 -52 -16 -22 -33 -44 -38 -50
-4 -5 -43 -57 -85 -115 -43 -58 -83 -112 -90 -120 -7 -8 -28 -37 -47 -65 -19
-27 -39 -55 -45 -62 -25 -31 -51 -65 -125 -168 -44 -60 -86 -117 -93 -125 -8
-8 -22 -28 -33 -45 -10 -16 -27 -38 -38 -47 -10 -10 -15 -18 -10 -18 5 0 2 -6
-6 -13 -9 -7 -31 -34 -50 -62 -19 -27 -37 -52 -40 -55 -3 -3 -17 -21 -30 -40
-14 -19 -28 -39 -33 -45 -4 -5 -59 -80 -122 -165 -63 -85 -123 -165 -134 -177
-12 -12 -21 -25 -21 -28 0 -2 -33 -49 -72 -102 l-73 -98 2 -540 c1 -297 2
-545 2 -550 1 -7 76 -11 209 -11 189 -1 358 -8 422 -18 14 -2 48 -7 75 -11 28
-4 53 -9 56 -11 3 -2 19 -6 35 -8 28 -6 56 -12 92 -20 56 -14 187 -63 252 -94
78 -38 191 -101 200 -112 3 -3 23 -19 45 -35 53 -38 255 -243 255 -258 0 -7 9
-19 20 -27 11 -8 20 -18 20 -22 0 -4 15 -31 33 -60 72 -114 155 -317 172 -423
2 -11 4 -21 5 -22 2 -2 4 -7 5 -13 1 -5 3 -11 5 -12 7 -9 39 -235 44 -306 2
-35 6 -65 9 -68 3 -3 1 -19 -3 -35 -5 -16 -5 -31 0 -34 5 -3 5 -16 0 -31 -6
-14 -7 -23 -2 -21 4 3 6 -11 5 -31 -7 -151 -14 -260 -17 -279 -3 -11 -8 -43
-12 -70 -3 -26 -8 -57 -11 -68 -2 -11 -6 -29 -7 -40 -15 -95 -88 -300 -143
-402 -45 -83 -133 -213 -144 -213 -5 0 -9 -5 -9 -11 0 -14 -165 -175 -202
-197 -15 -9 -28 -20 -28 -24 0 -4 -7 -8 -15 -8 -8 0 -15 -4 -15 -10 0 -5 -7
-10 -15 -10 -8 0 -15 -4 -15 -9 0 -5 -12 -14 -27 -20 -45 -19 -87 -43 -95 -55
-4 -6 -8 -8 -8 -4 0 4 -28 -6 -62 -21 -63 -29 -204 -76 -255 -86 -128 -25
-216 -38 -258 -39 -28 -1 -55 -4 -60 -7 -18 -9 -425 1 -425 11 0 3 -15 5 -33
6 -32 1 -87 10 -118 20 -10 2 -30 6 -45 8 -45 6 -266 83 -274 96 -4 7 -11 11
-16 11 -14 -1 -134 67 -194 110 -58 42 -183 160 -219 207 -75 97 -100 136
-152 237 -32 62 -55 115 -52 119 4 3 1 6 -5 6 -7 0 -11 3 -10 8 1 4 -10 43
-25 87 -15 44 -29 91 -31 105 -3 14 -5 25 -6 25 -2 0 -6 16 -14 60 -3 17 -8
43 -12 58 -7 34 -11 64 -19 137 -3 30 -8 64 -10 75 -6 29 5 40 50 55 42 13 69
24 147 59 26 11 52 21 58 21 5 0 10 4 10 8 0 5 16 14 35 22 19 8 35 17 35 20
0 4 10 11 23 17 52 24 178 148 234 232 21 31 41 58 44 61 27 24 125 268 155
385 6 24 15 62 19 90 3 17 8 37 10 45 2 8 7 38 11 65 3 28 8 52 9 55 2 3 6 44
10 90 4 47 8 95 10 106 3 21 0 21 -127 20 -71 0 -132 2 -135 7 -2 4 -9 4 -16
0 -14 -8 -149 -8 -171 0 -10 4 -15 3 -12 -1 6 -9 -138 -7 -154 3 -7 5 -11 4
-7 -1 3 -5 -20 -8 -52 -8 l-58 2 -2 -62 c-3 -82 -9 -149 -22 -221 -6 -33 -12
-69 -14 -80 -2 -11 -4 -21 -5 -22 -2 -2 -3 -6 -5 -10 -25 -90 -40 -133 -47
-133 -4 0 -8 -8 -8 -19 0 -21 -57 -109 -104 -160 -52 -56 -169 -123 -241 -137
-148 -30 -324 -22 -397 17 -13 7 -24 11 -26 10 -2 -2 -25 10 -52 27 -80 50
-136 143 -155 259 -1 11 -6 29 -9 40 -5 16 -10 52 -22 168 -2 22 -7 81 -10
130 -6 96 -13 3513 -7 3530 2 8 530 11 1693 11 930 0 1690 -2 1690 -3z"/>
</g>
</svg>
