<?xml version="1.0" encoding="UTF-8" standalone="no"?>
<svg
   width="199.28001"
   height="83.199997"
   viewBox="0 0 199.28001 83.199997"
   version="1.1"
   id="svg7"
   xmlns="http://www.w3.org/2000/svg"
   xmlns:svg="http://www.w3.org/2000/svg">
  <defs
     id="defs6">
    <linearGradient
       id="bak-gradient"
       gradientUnits="userSpaceOnUse"
       x1="-0.1"
       y1="14"
       x2="174.5"
       y2="106"
       gradientTransform="translate(-26.24,-29.2)">
      <stop
         offset="0%"
         stop-color="#ffffff"
         id="stop1" />
      <stop
         offset="30%"
         stop-color="#f1f5f9"
         id="stop2" />
      <stop
         offset="60%"
         stop-color="#cbd5e1"
         id="stop3" />
      <stop
         offset="100%"
         stop-color="#94a3b8"
         id="stop4" />
    </linearGradient>
    <linearGradient
       id="tz-gradient"
       gradientUnits="userSpaceOnUse"
       x1="143.89999"
       y1="18"
       x2="216.7"
       y2="110"
       gradientTransform="translate(-26.24,-29.2)">
      <stop
         offset="0%"
         stop-color="#38bdf8"
         id="stop5" />
      <stop
         offset="100%"
         stop-color="#6366f1"
         id="stop6" />
    </linearGradient>
  </defs>
  <path
     d="m 11.92,14.16 q 0,2.48 -0.16,4.88 -0.16,2.4 -0.32,3.76 h 0.48 q 1.76,-2.72 4.72,-4.56 2.96,-1.92 7.68,-1.92 7.36,0 11.92,5.76 4.56,5.68 4.56,16.8 0,11.2 -4.64,16.96 Q 31.52,61.6 24,61.6 19.2,61.6 16.4,59.92 13.68,58.16 11.92,56 h -0.8 l -2,4.8 H 0 V 0 h 11.92 z m 8.56,11.68 q -4.64,0 -6.56,2.88 -1.84,2.88 -2,8.8 v 1.28 q 0,6.32 1.84,9.76 1.92,3.36 6.88,3.36 3.68,0 5.84,-3.36 2.16,-3.44 2.16,-9.84 0,-6.4 -2.24,-9.6 -2.16,-3.28 -5.92,-3.28 z m 44.079954,-9.6 q 8.8,0 13.439996,3.84 4.72,3.76 4.72,11.6 V 60.8 h -8.32 l -2.319996,-5.92 h -0.32 q -2.8,3.52 -5.92,5.12 -3.12,1.6 -8.56,1.6 -5.84,0 -9.68,-3.36 -3.84,-3.44 -3.84,-10.48 0,-6.96 4.88,-10.24 4.88,-3.36 14.64,-3.68 l 7.6,-0.24 v -1.92 q 0,-3.44 -1.84,-5.04 -1.76,-1.6 -4.96,-1.6 -3.2,0 -6.24,0.96 -3.04,0.88 -6.08,2.24 l -3.92,-8.08 q 3.52,-1.84 7.76,-2.88 4.32,-1.04 8.96,-1.04 z m 1.68,24.48 q -5.76,0.16 -8,2.08 -2.24,1.92 -2.24,5.04 0,2.72 1.6,3.92 1.6,1.12 4.16,1.12 3.84,0 6.48,-2.24 2.64,-2.32 2.64,-6.48 v -3.6 z M 77.83995,4.08 v 8.24 H 51.359954 V 4.08 Z m 25.04001,23.12 q 0,2.48 -0.24,4.96 -0.16,2.4 -0.4,4.88 h 0.16 q 1.2,-1.68 2.48,-3.36 1.28,-1.76 2.72,-3.28 l 12.24,-13.28 h 13.44 l -17.36,18.96 18.4,24.72 h -13.76 l -12.56,-17.68 -5.12,4.08 v 13.6 h -11.92 V 0 h 11.92 z"
     id="text6"
     style="font-weight:700;font-size:80px;font-family:'Noto Sans';letter-spacing:-0.05em;fill:url(#bak-gradient)"
     aria-label="bāk" />
  <path
     d="m 152.72001,55.279997 q 2,0 3.84,-0.4 1.84,-0.4 3.68,-0.96 v 8.88 q -1.92,0.8 -4.8,1.36 -2.8,0.64 -6.16,0.64 -3.92,0 -7.04,-1.28 -3.04,-1.28 -4.88,-4.4 -1.76,-3.2 -1.76,-8.8 v -21.04 h -5.68 v -5.04 l 6.56,-4 3.44,-9.2 h 7.6 v 9.28 h 50 v 7.76 l -17.28,16.16 q 7.04,0.8 11.2,3.6 4.16,2.72 6,6.88 1.84,4.16 1.84,9.2 0,5.44 -2.56,9.840003 -2.56,4.4 -7.84,6.88 -5.28,2.56 -13.44,2.56 -9.84,0 -17.28,-3.12 V 69.839997 q 3.84,1.840003 8.24,2.800003 4.48,0.96 8.16,0.96 4.88,0 7.6,-1.44 2.72,-1.440003 3.84,-3.840003 1.2,-2.32 1.2,-4.96 0,-2.96 -1.36,-5.28 -1.36,-2.4 -4.8,-3.76 -3.36,-1.44 -9.44,-1.44 h -4.64 v -8.48 l 16.08,-15.12 h -35.52 v 21.04 q 0,2.48 1.44,3.76 1.44,1.2 3.76,1.2 z"
     id="text7"
     style="font-weight:700;font-size:80px;font-family:'Noto Sans';fill:url(#tz-gradient)"
     aria-label="ꜩ" />
</svg>
