<?xml version="1.0" encoding="UTF-8"?>
<svg width="95.527mm" height="33.556mm" version="1.1" viewBox="27.486 76.283 95.527 33.556" xmlns="http://www.w3.org/2000/svg">
	<defs>
		<linearGradient id="bak-gradient" gradientUnits="userSpaceOnUse" x1="37.6" y1="65.9" x2="84.9" y2="113.1">
			<stop offset="0%" stop-color="#ffffff"/>
			<stop offset="30%" stop-color="#f1f5f9"/>
			<stop offset="60%" stop-color="#cbd5e1"/>
			<stop offset="100%" stop-color="#94a3b8"/>
		</linearGradient>
		<linearGradient id="tz-gradient" gradientUnits="userSpaceOnUse" x1="94.4" y1="80.7" x2="123.3" y2="109.5">
			<stop offset="0%" stop-color="#38bdf8"/>
			<stop offset="100%" stop-color="#6366f1"/>
		</linearGradient>
	</defs>
	<g fill="url(#bak-gradient)" stroke-width=".26458px" aria-label="bāk">
		<path d="m49.379 94.525q0 3.8757-2.5666 6.4251-2.5494 2.5494-6.4768 2.5494-1.5158 0-2.6183-0.22393-1.0852-0.2067-1.8431-0.51676-0.79237-0.32728-1.2747-0.63734-0.46509-0.32728-0.74069-0.53399l-2.4632 2.2393-1.0163-0.39619q0.08613-1.2574 0.1378-2.7216 0.0689-1.4814 0.0689-3.9791v-16.123q0-0.65457-0.27561-1.2058-0.25838-0.56844-0.70624-0.86127-0.32728-0.2067-0.96462-0.36173-0.62012-0.15503-1.1541-0.18948v-1.2575l8.5094-0.44786 0.25838 0.27561v11.197h0.10335q1.2575-1.223 2.5838-1.7914 1.3264-0.56844 2.6527-0.56844 3.6173 0 5.7016 2.4632t2.0843 6.6662zm-6.1839 0.2067q0-1.3091-0.2067-2.5149-0.18948-1.223-0.65457-2.1532-0.46509-0.93017-1.223-1.4814-0.75792-0.56844-1.8776-0.56844-1.0508 0-1.7398 0.34451-0.68902 0.34451-1.2402 1.0163v10.025q0.10335 0.34451 0.37896 0.91295 0.29283 0.55121 0.58566 0.86127 0.41341 0.44786 0.8785 0.68902 0.46509 0.22393 1.3091 0.22393 1.757 0 2.7733-1.912 1.0163-1.9292 1.0163-5.4432z"/>
		<path d="m71.29 102.59q-0.75792 0.32728-1.7914 0.60289-1.0335 0.2756-2.1876 0.2756-2.1187 0-3.1178-0.62011-0.99908-0.63734-1.3608-1.8087h-0.10335q-0.58566 0.58566-1.1369 0.99907-0.53399 0.41341-1.1541 0.70625-0.8096 0.37895-1.5675 0.55121-0.74069 0.18948-2.0843 0.18948-1.9982 0-3.4106-1.1713-1.4125-1.1886-1.4125-3.135 0-1.1197 0.31006-1.8948 0.31006-0.79237 0.8785-1.3953 0.51676-0.55121 1.1886-0.91295 0.68902-0.36173 1.4986-0.67179 1.5503-0.56844 3.7207-1.1713 2.1704-0.62012 3.1695-1.1024v-1.6536q0-0.43064-0.0689-1.1369t-0.29283-1.1886q-0.24116-0.55121-0.75792-0.93017-0.51676-0.37896-1.3608-0.37896-0.75792 0-1.2747 0.22393-0.49954 0.20671-0.8096 0.43064 0.05168 0.34451 0.29283 1.0508 0.24116 0.70624 0.24116 1.3608 0 0.29283-0.15503 0.74069-0.15503 0.43064-0.44786 0.68902-0.39618 0.34451-0.89572 0.53399-0.48231 0.18948-1.4986 0.18948-1.4469 0-2.1876-0.68902-0.74069-0.70624-0.74069-1.8259 0-0.96462 0.75792-1.7225 0.77514-0.77514 1.8776-1.2747 1.0852-0.51676 2.4977-0.79237 1.4125-0.29283 2.6183-0.29283 1.6709 0 3.0661 0.2067 1.3953 0.18948 2.5149 0.8096 1.068 0.60289 1.6881 1.757 0.63734 1.1369 0.63734 2.98 0 1.9465-0.08613 4.6164-0.0689 2.6699-0.0689 3.514 0 0.77515 0.22393 1.223 0.24116 0.44786 0.72347 0.67179 0.29283 0.1378 0.91295 0.17225 0.63734 0.0172 1.1541 0.0172zm-8.561-8.9745q-0.96462 0.32728-1.912 0.75792-0.9474 0.41341-1.5503 0.8785-0.63734 0.48231-0.99908 1.2402-0.36173 0.74069-0.36173 1.757 0 1.3436 0.60289 1.9465 0.62012 0.60289 1.5158 0.60289 0.9474 0 1.5503-0.37896 0.62012-0.39618 1.0852-0.96462zm4.6681-12.127h-12.885v-2.98h12.885z"/>
		<path d="m94.717 102.95h-8.1132q-1.4986-2.6355-2.7388-4.4614-1.2402-1.8431-2.3427-3.4106l-1.0335 0.8785v3.7551q0 0.62011 0.17225 1.0163 0.18948 0.39618 0.70624 0.58566 0.31006 0.13781 0.72347 0.24116 0.41341 0.10335 0.82682 0.1378v1.2575h-10.663v-1.2575q0.43064-0.0344 0.86127-0.0861 0.43064-0.0689 0.75792-0.17226 0.55121-0.18948 0.74069-0.58566 0.2067-0.39619 0.2067-1.0335v-19.206q0-0.56844-0.25838-1.1713-0.24116-0.62012-0.72347-0.93017-0.32728-0.2067-0.98185-0.34451-0.65457-0.1378-1.1886-0.17225v-1.2575l8.561-0.44786 0.25838 0.27561v17.777q1.2747-1.1369 2.8594-2.6355 1.602-1.4986 2.5666-2.4805 0.56844-0.58566 0.62012-0.8785 0.0689-0.31006 0.0689-0.37896 0-0.31006-0.55121-0.51676-0.53399-0.20671-1.6192-0.36174v-1.223h8.7505v1.1886q-1.7225 0.48231-2.6355 0.91295-0.89572 0.41341-1.9637 1.1197-0.70624 0.46509-1.378 0.98185-0.65457 0.49954-1.5158 1.2575 1.6881 2.446 3.1178 4.5303 1.4297 2.0843 2.9972 4.4097 0.53399 0.8096 1.3264 1.0852 0.79237 0.27561 1.5847 0.34451z"/>
	</g>
	<g fill="url(#tz-gradient)" stroke-width=".24966px" aria-label="ꜩ">
		<path d="m97.219 87.767h-2.503v-1.9667h2.503v-5.3637h5.7537v5.3637h17.96v1.9342l-5.9163 7.9967q3.5758 0.34132 5.3962 1.7066 2.6006 1.9667 2.6006 5.3799 0 3.397-2.6981 5.2011-2.6818 1.8204-7.7854 1.8204-1.9179 0-3.9658-0.32507-2.0317-0.32507-4.2584-0.97521v-5.0223q-0.47136 0.0325-0.99147 0.0325-3.5595 0-4.8273-1.1052-1.2678-1.1215-1.2678-4.0959zm16.969 0h-11.215v10.581q0 2.2592 0.35757 2.8119 0.35758 0.55262 1.3003 0.55262 1.0402 0 1.5441-0.6989t0.53637-2.1617h2.4218q-0.16254 2.6006-1.4303 3.6408-0.55262 0.4551-1.4303 0.71516 0.17879 2.308 1.4466 3.5108 1.2678 1.219 3.5108 1.219 2.4705 0 3.8196-1.3816 1.349-1.3653 1.349-3.8846 0-2.6331-1.414-4.0634-1.3978-1.4303-3.9821-1.4303h-1.0727v-3.657z"/>
	</g>
</svg>
