<?xml version="1.0" encoding="UTF-8"?>
<svg width="78.571" height="50" fill="none" version="1.1" viewBox="0 0 78.571 50" xmlns="http://www.w3.org/2000/svg">
	<path d="m53.97 37.634v-0.3848h-48.414v-5.5484h-5.5555v-31.701h67.459v5.5485h5.5555v12.998c1.4966 2.0486 2.3817 4.5763 2.3817 7.3101 0 0.0999 0 0.2544-7e-4 0.4443 1.9728 2.1932 3.1753 5.0991 3.1753 8.2859v3.047c0 6.8254-5.5109 12.366-12.302 12.366-6.7914 0-12.301-5.5407-12.301-12.366h9e-4zm13.296 11.345v-2.5772c-0.3281 0.0269-0.6604 0.0411-0.9949 0.0411-0.163 0-0.3245-0.0035-0.4854-0.0099l7e-4 2.546zm-3.4509-0.6313-0.0014-2.1628c-0.5052-0.1084-0.9998-0.248-1.4788-0.4195l7e-4 2.5822zm6.5575 0v-2.6424c-0.479 0.18-0.9736 0.3267-1.4796 0.4436v2.1988zm-9.368-1.6433-0.0014-1.508c-0.5152-0.2593-1.0105-0.5555-1.4789-0.885l7e-4 2.3929zm12.178 0v-2.5114c-0.4691 0.3408-0.963 0.6484-1.4796 0.9184v1.5929zm3.1683-12.117c0-1.5873-0.365-3.0902-1.0148-4.4288-0.6257 6.2373-5.8688 11.112-12.238 11.112-1.9012 0-3.7011-0.4337-5.309-1.2082 1.7949 2.8011 4.9248 4.6563 8.4828 4.6563 5.5627 0 10.079-4.54 10.079-10.131h2e-4zm-18.454 9.6804-0.0015-1.3358c-0.4294-0.4336-0.8241-0.9013-1.1819-1.3988l0.0014 2.7345zm18.096 0v-2.7928h-0.1226c-0.3238 0.4535-0.676 0.8837-1.058 1.2869v1.5058zm-20.009-3.6076-7e-4 -0.2707c-0.2834-0.5074-0.5321-1.0382-0.7412-1.5888l0.0014 1.8595zm21.48 0v-2.3264c-0.2013 0.608-0.45 1.1919-0.7405 1.7503v0.5761zm-13.372-0.411v-2.5773c-0.3281 0.027-0.6604 0.0411-0.9949 0.0411-0.163 0-0.3246-0.0035-0.4854-0.0099l7e-4 2.546zm-3.4509-0.6314-0.0014-2.1627c-0.5053-0.1085-0.9999-0.2481-1.4789-0.4195l7e-4 2.5821zm6.5575 0v-2.6424c-0.4791 0.18-0.9737 0.3267-1.4796 0.4436v2.1988zm-9.368-1.6433-0.0014-1.5079c-0.5152-0.2594-1.0105-0.5556-1.4789-0.8851l7e-4 2.3929zm12.178 0v-2.5114c-0.4691 0.3409-0.963 0.6484-1.4796 0.9184v1.5929zm3.1682-12.117c0-5.5916-4.5166-10.13-10.079-10.13-5.5626 0-10.079 4.5388-10.079 10.13 0 5.591 4.5166 10.131 10.079 10.131 5.5627 0 10.079-4.5401 10.079-10.131zm-18.454 9.6804-0.0014-1.3357c-0.4294-0.4337-0.8241-0.9014-1.182-1.3989l0.0014 2.7346zm18.096 0v-2.7927h-0.1226c-0.3239 0.4535-0.6761 0.8836-1.058 1.2868v1.5058zm-21.707-3.8364h-43.173v3.1705h44.383c-0.5392-0.9822-0.9509-2.0465-1.2089-3.1705zm1.6979 0.2289-7e-4 -0.2707c-0.2835-0.5074-0.5322-1.0381-0.7412-1.5887l0.0014 1.8594zm21.48 0v-2.3263c-0.2012 0.608-0.4499 1.1918-0.7405 1.7502v0.5761zm-14.616-0.5229v-2.678h1.6758v-5.3919c-0.5874 0.1552-1.5377 0.1205-1.6758 0.1035v-2.5921c1.6935 0.0517 3.0244-0.6059 3.6466-1.4173h1.7623v9.2978h1.6064v2.6779zm-8.8769-2.5029v-3.0471c0-6.8246 5.5102-12.365 12.301-12.365 0.6746 0 1.3372 0.0553 1.9828 0.1609v-3.5984c-3.7939-0.89569-6.7837-3.8824-7.6829-7.6764h-47.332c-0.89992 3.7925-3.889 6.78-7.6822 7.6764v11.594c3.7939 0.8964 6.7822 3.8839 7.6822 7.6763h40.736c-0.0043-0.1396-0.0064-0.2792-0.0064-0.4216l1e-3 1e-4zm-30.805-12.932c0-6.7318 6.1522-12.197 13.732-12.197 7.5786 0 13.731 5.4648 13.731 12.197 0 6.7325-6.1522 12.197-13.731 12.197-7.5793 0-13.732-5.4648-13.732-12.197zm23.57 0.1587c0-3.8705-2.281-6.0651-5.046-6.0651-2.9556 0-5.063 2.4538-5.063 6.0651 0 3.8712 2.3334 6.0658 5.063 6.0658 2.5063 0 5.046-1.9005 5.046-6.0658zm-10.692 5.9106v-2.6787h-1.6057v-9.297h-1.7631c-0.6221 0.8113-1.953 1.4682-3.6466 1.4165v2.5928c0.1382 0.017 1.0884 0.0518 1.6759-0.1041v5.3919h-1.6759v2.6786zm4.4181-5.9106c-0.017-2.3498 0.2764-3.5779 1.2274-3.5779 0.8638 0 1.2096 0.9687 1.2096 3.5779 0 2.4539-0.2424 3.5771-1.2096 3.5771-1.002 0-1.2097-1.2096-1.2274-3.5771zm33.348-0.0418v-8.1618h-3.1746v6.3677c1.15 0.4393 2.218 1.048 3.1746 1.7942z" clip-rule="evenodd" fill="#000" fill-opacity=".9706" fill-rule="evenodd"/>
</svg>
