<?xml version="1.0" encoding="UTF-8"?>
<svg width="861.6" height="673.76" version="1.1" viewBox="0 0 861.6 673.76" xmlns="http://www.w3.org/2000/svg" xmlns:xlink="http://www.w3.org/1999/xlink">
	<defs>
		<linearGradient id="paint0_linear_10_2032" x1="499.5" x2="551.5" y1="6" y2="641.5" gradientUnits="userSpaceOnUse">
			<stop stop-color="#855440" offset="0"/>
			<stop stop-color="#929063" offset=".16146"/>
			<stop stop-color="#74926E" offset=".30729"/>
			<stop stop-color="#81AF9B" offset=".45312"/>
			<stop stop-color="#7AAC9C" offset=".60417"/>
			<stop stop-color="#91AEA9" offset=".75"/>
			<stop stop-color="#A6A5B0" offset=".86458"/>
			<stop stop-color="#BDA7B5" offset="1"/>
		</linearGradient>
		<linearGradient id="linearGradient42044" x1="499.5" x2="551.5" y1="6" y2="641.5" gradientUnits="userSpaceOnUse" xlink:href="#paint0_linear_10_2032"/>
	</defs>
	<g transform="translate(-11.204 -15.14)" fill="url(#linearGradient42044)" opacity=".2" stop-color="#000000" style="-inkscape-stroke:none;font-variation-settings:normal">
		<path d="m130.19 672.46-36.134-16.425 0.12607-0.48761c0.16195-0.62639 0.16245-2.2672 9.6e-4 -2.8908l-0.12519-0.48319 68.495-31.111 0.88723 0.6215c3.1376 2.1979 8.0611 1.0791 9.2784-2.1085 0.87167-2.2824-0.97373-4.7453-4.0499-5.4051l-0.82584-0.1771 0.0808-62.42 0.96-0.26734c1.089-0.30326 2.1614-0.82144 2.4703-1.1936 0.1149-0.13843 0.36709-0.25169 0.56042-0.25169 0.19334 0 16.727 7.4384 36.74 16.53l36.389 16.53 0.0808 66.754-0.80382 0.17238c-1.6832 0.36098-3.1446 1.359-3.7415 2.5551-0.52565 1.0534-0.59616 1.6322-0.32544 2.6716 0.1308 0.50219 0.21808 0.93283 0.19393 0.95697-0.0241 0.0241-16.304 7.4299-36.177 16.457-34.591 15.713-36.172 16.413-37.04 16.406-0.85502-7e-3 -2.9657-0.94366-37.04-16.432zm74.974-1.9571 33.56-15.253v-1.0745c0-0.591 0.10752-1.3793 0.23895-1.7518 0.55717-1.5792 2.1484-3.0519 3.9647-3.6692l0.83632-0.28429v-64.545l-35.52-16.152c-19.536-8.8835-35.679-16.195-35.873-16.248-0.21838-0.0593-0.5239 0.0202-0.8 0.20835-0.41026 0.27949-1.3196 0.69115-2.0067 0.90841-0.26536 0.0839-0.28 1.6615-0.28 30.171v30.083l0.7275 0.18318c0.89456 0.22525 2.3986 1.1781 3.0204 1.9136 0.60246 0.71253 1.1615 1.958 1.2953 2.8859 0.12975 0.89955-0.23206 2.437-0.77641 3.2994-0.85992 1.3622-2.7096 2.5493-4.5765 2.9372-1.9114 0.3971-4.77-0.0976-6.0044-1.0392l-0.52056-0.39704-66.685 30.302v2.2542l71.512 32.495 2.1641-0.98652c1.1903-0.54257 17.266-7.8506 35.724-16.24zm82.12 1.995c-19.8-9.0096-36.072-16.409-36.16-16.443-0.10139-0.0394-0.0812-0.28184 0.0553-0.66186 0.85855-2.3917-0.93352-4.8952-3.9703-5.5464l-0.80567-0.17278 0.0808-66.742 36.387-16.536c20.013-9.0945 36.523-16.536 36.689-16.536 0.16652 0 0.56856 0.21096 0.89339 0.46878 1.9296 1.5316 5.5238 1.5388 7.5955 0.0152 0.362-0.26622 0.78275-0.48403 0.935-0.48403 0.28232 0 72.244 32.629 72.901 33.054l0.36037 0.23366-0.0808 66.464-0.96 0.25533c-1.0144 0.26979-1.9557 0.72749-2.6736 1.3l-0.43358 0.34576-34.206-15.544c-33.806-15.362-34.206-15.549-34.182-15.986 0.0134-0.24328 0.0768-0.74804 0.14099-1.1217 0.19343-1.1265-0.16876-2.063-1.1968-3.0946-1.2662-1.2706-2.3032-1.659-4.4085-1.6512-1.9276 7e-3 -3.011 0.36717-4.1666 1.3844-0.84326 0.74229-1.5094 1.9858-1.5118 2.8222-4e-3 1.5481 1.1774 3.1528 2.9118 3.9537 0.91807 0.42393 1.1615 0.46483 2.7666 0.46483 1.6598 0 1.8192-0.0293 2.8-0.51477 0.572-0.28312 1.2276-0.66739 1.4568-0.85393l0.41684-0.33919 68.552 31.139-0.12539 0.48424c-0.162 0.62556-0.16128 2.2653 2e-3 2.8949l0.12668 0.49067-36.167 16.429c-34.996 15.897-36.197 16.429-37.094 16.419-0.8797-0.01-2.7572-0.84341-36.927-16.392zm73.287-1.2709 35.193-15.993-0.0521-1.15-0.052-1.15-15.868-7.211c-8.7274-3.966-23.706-10.772-33.285-15.124l-17.417-7.9135-0.9829 0.54017c-3.7661 2.0698-8.7747 0.81279-10.46-2.6251-0.37128-0.75728-0.44069-1.1028-0.43787-2.1799 3e-3 -1.1476 0.0596-1.3846 0.5476-2.2914 0.66117-1.2286 1.6728-2.1612 3.0094-2.7741 3.6574-1.6772 8.3935-0.38355 9.9048 2.7055 0.3322 0.67894 0.44927 1.1924 0.50229 2.2026l0.0691 1.3172 2.181 0.98027c1.1996 0.53914 16.177 7.3404 33.284 15.114l31.103 14.134 1.186-0.61375c0.6523-0.33757 1.3263-0.61374 1.4978-0.61374 0.30815 0 0.31131-0.37711 0.27139-32.34l-0.0404-32.34-6.24-2.8343c-3.432-1.5589-19.519-8.8678-35.748-16.242l-29.508-13.408-0.89212 0.48848c-2.4856 1.361-6.3346 1.2972-8.3506-0.13838-0.48606-0.34611-0.53008-0.35013-1.1634-0.10619-0.362 0.13944-16.498 7.4553-35.858 16.258l-35.2 16.004v64.547l0.81344 0.27652c2.5681 0.87291 4.2262 2.9799 4.2264 5.3707l1.2e-4 1.1367 71.44 32.466 0.56687-0.24992c0.31179-0.13748 16.404-7.4468 35.76-16.243zm240.66 1.2464-36.137-16.421 0.12424-0.57616c0.15866-0.73568 0.15928-2.0143 2e-3 -2.7439l-0.12288-0.56776 3.1757-1.4475c1.7466-0.79612 17.16-7.8017 34.253-15.568l31.077-14.121 0.62155 0.49227c1.0198 0.80771 2.0422 1.1747 3.5156 1.2618 1.7139 0.10138 3.0554-0.24635 4.2919-1.1125l0.90704-0.63537 68.463 31.116-0.13176 0.65481c-0.11933 0.59306-0.12344 1.2484-0.0175 2.7804l0.0364 0.52553-36.065 16.394c-34.192 15.543-36.112 16.394-36.96 16.392-0.84323-3e-3 -2.9731-0.94731-37.032-16.424zm72.861-1.0276 35.604-16.174 0.0204-2.3207-66.678-30.289-0.59525 0.3939c-2.2407 1.4828-6.119 1.561-8.1932 0.16514l-0.79798-0.53701-66.644 30.27v2.3051l35.6 16.176c19.58 8.8968 35.708 16.178 35.84 16.18s16.262-7.274 35.844-16.17zm84.102 1.0173-36.134-16.422 0.12662-0.49037c0.16298-0.6312 0.16303-2.2694 8e-5 -2.9004l-0.12654-0.48997 2.934-1.328c1.6137-0.7304 17.024-7.7285 34.245-15.551l31.311-14.223 0.89085 0.62405c2.261 1.5839 5.7242 1.5109 7.8175-0.16464l0.6104-0.48859 0.67767 0.29588c0.37273 0.16276 15.816 7.1719 34.319 15.576 30.103 13.673 33.633 15.314 33.563 15.6-0.043 0.176-0.15347 0.61713-0.24555 0.98029-0.12879 0.50793-0.11197 0.87313 0.0729 1.5828 0.13214 0.50737 0.22053 0.94065 0.19638 0.96284-0.0241 0.0222-16.303 7.4279-36.175 16.457-34.612 15.726-36.169 16.417-37.04 16.41-0.85843-7e-3 -2.9195-0.92105-37.043-16.43zm83.774-5.9586 24.76-11.255v-2.2866l-66.609-30.27-0.97643 0.53672c-2.5077 1.3784-6.2513 1.3078-8.1678-0.15393l-0.51995-0.39658-66.687 30.294v2.2636l71.493 32.482 10.973-4.9801c6.0354-2.7391 22.115-10.045 35.733-16.235zm-118.92-13.204c0-0.044-0.036-0.08-0.08-0.08s-0.08 0.036-0.08 0.08 0.036 0.08 0.08 0.08 0.08-0.036 0.08-0.08zm-641.52-2.9478c-1.32-0.60138-16.69-7.5866-34.157-15.523-17.466-7.9361-31.778-14.451-31.804-14.477-0.02605-0.026 0.0602-0.4603 0.19166-0.965 0.18251-0.70071 0.20099-1.095 0.07818-1.6676-0.32521-1.5164-1.9545-2.9968-3.8193-3.4703l-0.73013-0.18539-0.0808-62.552 0.9347-0.25987c0.51409-0.14293 1.3135-0.51478 1.7765-0.82633 0.46298-0.31157 0.96054-0.56572 1.1057-0.56479s16.644 7.4438 36.664 16.54l36.4 16.538 0.08076 66.738-0.87628 0.18192c-0.93109 0.1933-2.1886 0.78869-2.7348 1.2948-0.18167 0.16835-0.39767 0.30285-0.48 0.29887-0.08233-4e-3 -1.2297-0.49925-2.5497-1.1006zm3.0318-0.95064c0.39762-0.25216 1.0483-0.54955 1.4459-0.6609l0.72301-0.20243-0.08078-64.676-35.44-16.116c-19.492-8.8636-35.594-16.16-35.783-16.215-0.2214-0.0639-0.56105 0.0384-0.96 0.28901-0.33956 0.21329-0.94139 0.49513-1.3374 0.6263l-0.72 0.23848-0.08084 60.176 0.8177 0.26746c1.6256 0.5317 2.8872 1.613 3.6131 3.0966 0.35028 0.71595 0.42926 1.1003 0.43049 2.095l0.0015 1.2181 33.289 15.143c18.309 8.3286 33.305 15.151 33.323 15.16 0.01894 9e-3 0.35976-0.18918 0.75738-0.44134zm8.3005 1.681c-0.6456-0.53885-1.4169-0.90723-2.5263-1.2066l-0.96593-0.26069-0.08076-66.468 0.36038-0.23221c0.60512-0.38992 72.611-33.056 72.865-33.056 0.13069 0 0.55115 0.21571 0.93434 0.47936 0.81869 0.56328 1.3128 0.77624 2.4009 1.0348l0.8 0.19008 0.0411 31.108c0.0384 29.105 0.0236 31.121-0.23059 31.308-0.1494 0.11-0.39917 0.2-0.55505 0.2-0.63926 0-2.0898 0.70203-2.8351 1.3721-1.1473 1.0315-1.5329 1.9095-1.3886 3.1617 0.0625 0.5424 0.12593 1.1508 0.14097 1.3519 0.0252 0.33657-2.694 1.6021-34.122 15.88-18.782 8.5328-34.202 15.514-34.268 15.514-0.06536 0-0.32236-0.16987-0.5711-0.37749zm34.495-16.559 33.028-15.008-0.0389-1.0731c-0.0501-1.3809 0.29902-2.4312 1.1168-3.3602 0.7606-0.8641 1.4695-1.3228 2.7744-1.7953l0.97229-0.35205 0.0808-60.17-0.60042-0.1915c-0.33023-0.10533-1.0019-0.4087-1.4926-0.67418l-0.89216-0.48265-71.496 32.492-0.08078 64.636 0.52039 0.0997c0.28621 0.0548 0.95239 0.34062 1.4804 0.63509 0.72204 0.40268 1.0393 0.50032 1.28 0.39387 0.176-0.0778 15.182-6.895 33.348-15.149zm436.34 16.448c-0.57945-0.49523-1.7684-1.0077-2.777-1.1969l-0.5872-0.11016 0.0808-66.696 1.52-0.69639c14.643-6.7088 71.401-32.411 71.573-32.411 0.12925 0 0.60774 0.25084 1.0633 0.55745 0.793 0.53363 2.1368 1.0426 2.7528 1.0426 0.28028 0 0.29096 1.1472 0.29096 31.277v31.277l-0.44 0.0973c-1.9777 0.4371-3.2395 1.2181-4.0084 2.481-0.48595 0.79809-0.52283 0.95148-0.45869 1.9079 0.0384 0.572 0.11994 1.2242 0.18125 1.4494 0.11083 0.40696-0.0911 0.50148-34.104 15.96-18.819 8.5528-34.286 15.548-34.373 15.544-0.0865-4e-3 -0.40778-0.22057-0.71389-0.48219zm34.383-16.311 33.288-15.12 6e-3 -1.28c5e-3 -0.93293 0.0945-1.4752 0.33139-2 0.61814-1.3694 2.157-2.5994 3.908-3.1237l0.64-0.19161 0.0808-60.18-0.60042-0.19182c-0.33022-0.10549-1.0117-0.4077-1.5143-0.67157l-0.91387-0.47974-71.452 32.461-0.0404 32.349c-0.0361 28.895-0.0144 32.349 0.20351 32.349 0.34683 0 2.2504 0.88301 2.3898 1.1086 0.064 0.10358 0.17705 0.16653 0.25118 0.13989 0.0741-0.0266 15.114-6.8524 33.422-15.168zm111.45 15.693c-1.32-0.60067-16.689-7.5846-34.154-15.52-17.465-7.9353-31.788-14.462-31.831-14.505-0.0423-0.0423 0.0158-0.33312 0.12911-0.64637 0.49625-1.3724-0.0125-3.199-1.16-4.1645-0.67807-0.57054-1.8938-1.1532-2.8211-1.3521l-0.80344-0.1723v-31.267c0-30.12 0.0107-31.267 0.29096-31.267 0.61608 0 1.9598-0.50892 2.7528-1.0426 0.4556-0.30661 0.94713-0.5571 1.0923-0.55667 0.14515 0 16.644 7.4455 36.664 16.545l36.4 16.544 0.0808 66.7-0.8765 0.19614c-0.94142 0.21069-2.1992 0.81268-2.7346 1.3088-0.18166 0.16835-0.39766 0.30285-0.48 0.29887-0.0823-4e-3 -1.2297-0.49868-2.5497-1.0993zm3.0318-0.95192c0.39761-0.25216 1.0481-0.54951 1.4456-0.66079l0.72262-0.20232v-64.609l-1.5476-0.71828c-0.85115-0.39504-16.943-7.711-35.759-16.258l-34.211-15.539-0.9213 0.48371c-0.50672 0.26603-1.1913 0.56997-1.5213 0.67539l-0.6 0.19168v30.05c0 27.254 0.0236 30.06 0.25308 30.148 0.1392 0.0534 0.35973 0.0971 0.49007 0.0971 0.57955 0 2.0571 0.92395 2.854 1.7846 1.0287 1.1112 1.4388 2.1657 1.4214 3.6554l-0.0122 1.04 33.297 15.143c18.313 8.3284 33.312 15.15 33.331 15.16s0.35976-0.18886 0.75738-0.44102zm8.4112 1.8221c-0.37344-0.44997-1.5437-1.0527-2.5946-1.3363l-1.0084-0.27216-0.0808-66.468 0.36037-0.23338c0.59621-0.38609 72.598-33.054 72.852-33.054 0.12965 0 0.60291 0.25259 1.0517 0.56129 0.72025 0.49546 1.7976 0.91101 2.7763 1.0708 0.31856 0.052 0.32019 0.19229 0.36106 31.17 0.0384 29.114 0.0236 31.131-0.23058 31.318-0.14941 0.11-0.39918 0.2-0.55505 0.2-0.68261 0-2.1052 0.70905-2.924 1.4574-1.3197 1.2062-1.6137 2.3332-1.126 4.3163 0.0989 0.40229 0.0166 0.45247-2.9919 1.8226-32.877 14.973-65.087 29.583-65.343 29.638-0.18479 0.0398-0.42536-0.0441-0.54725-0.191zm34.363-16.691 33.006-14.994 0.0389-1.4394c0.0431-1.5921 0.22456-2.0757 1.173-3.1255 0.70066-0.77555 1.425-1.2307 2.6832-1.6864l0.97229-0.35205 0.0808-60.17-0.60041-0.1915c-0.33023-0.10533-1.0022-0.40886-1.4932-0.67453l-0.89282-0.48302-71.494 32.489-0.0808 64.638 0.52038 0.0997c0.28621 0.0548 0.95238 0.34062 1.4804 0.63509 0.7265 0.40516 1.0378 0.50044 1.28 0.39171 0.176-0.079 15.173-6.891 33.326-15.138zm111.63 16.028c-1.056-0.48677-15.996-7.2794-33.2-15.095-17.204-7.8153-31.712-14.416-32.24-14.668-1.0228-0.4882-1.0126-0.46427-0.70584-1.6682 0.15271-0.59926 0.1405-0.88651-0.0682-1.6043-0.46966-1.6156-1.8588-2.7998-3.8652-3.2949l-1.0416-0.25703 0.0808-62.398 0.87263-0.22331c1.0342-0.26467 2.1468-0.79682 2.5138-1.2023 0.14476-0.15996 0.41873-0.29084 0.60883-0.29084 0.19009 0 16.649 7.408 36.575 16.462l36.23 16.462v66.959l-0.86418 0.22115c-0.47531 0.12165-1.2935 0.50786-1.8182 0.85826-0.52472 0.3504-0.99984 0.6339-1.0558 0.63003-0.056-4e-3 -0.96576-0.40533-2.0218-0.89211zm4.04-1.8311 0.68-0.20042-8e-3 -64.669-35.381-16.063c-19.46-8.8349-35.576-16.137-35.814-16.227-0.35679-0.13467-0.5208-0.1003-0.93749 0.1964-0.27779 0.19781-0.88178 0.4923-1.3422 0.65445l-0.83714 0.2948-0.0808 60.162 0.84707 0.24624c2.4209 0.70378 4.2442 3.1926 4.0878 5.5799l-0.054 0.82483 66.689 30.299 0.73567-0.44845c0.40461-0.24666 1.0417-0.53866 1.4157-0.64888zm-796.04-72.687c-7.392-3.3647-23.7-10.779-36.24-16.476-12.54-5.6969-22.896-10.417-23.013-10.49-0.17556-0.10869-0.16835-0.28185 0.0411-0.98715 0.28032-0.94394 0.21446-1.6611-0.23415-2.5498-0.61285-1.214-2.325-2.4425-3.714-2.6648l-0.6-0.0961v-66.947l36.04-16.374c19.822-9.0058 36.226-16.445 36.454-16.532 0.35056-0.13326 0.53285-0.0759 1.1849 0.37272 1.256 0.86413 2.2242 1.1679 3.7608 1.18 1.5964 0.0126 2.6468-0.29424 3.886-1.135 0.8236-0.55883 0.84202-0.56298 1.474-0.33219 0.91267 0.33329 72.279 32.777 72.52 32.968 0.15885 0.12595 0.2 6.9997 0.2 33.408 0 31.53-0.0145 33.254-0.28 33.328-0.154 0.0434-0.532 0.12899-0.84 0.1903-0.66765 0.1329-1.6467 0.60411-2.3493 1.1307-0.28013 0.20995-0.59005 0.38173-0.68872 0.38173-0.0987 0-14.269-6.4002-31.491-14.223-17.221-7.8225-33.647-15.283-36.503-16.579-5.1602-2.3425-5.6886-2.5138-5.6886-1.8447 0 0.10909 16.438 7.6612 36.529 16.783l36.529 16.584-0.1189 0.56c-0.11423 0.53793-0.1271 1.9745-0.0264 2.9413l0.0481 0.46133-36.4 16.538c-20.02 9.096-36.544 16.534-36.72 16.529s-6.368-2.7623-13.76-6.1269zm49.68-11.612 35.6-16.184-0.0568-2.3002-36.692-16.669c-20.18-9.1681-36.712-16.768-36.737-16.888-0.02473-0.1202 0.39401-0.81785 0.93055-1.5503 0.80046-1.0928 1.0382-1.3185 1.325-1.258 0.1922 0.0406 16.778 7.5407 36.857 16.667l36.508 16.593 0.61226-0.39643c0.33675-0.21805 0.99027-0.52761 1.4523-0.68795l0.84-0.29149v-64.532l-35.48-16.119c-19.514-8.8654-35.631-16.187-35.815-16.27-0.26125-0.11821-0.50688-0.0461-1.12 0.3289-2.2721 1.3896-5.7153 1.3943-8.1912 0.0112l-0.84579-0.47255-71.428 32.457-0.08078 64.646 0.60039 0.1942c1.0446 0.33787 1.8216 0.79792 2.6391 1.5626 1.1506 1.0762 1.6044 2.0517 1.7127 3.6818l0.08861 1.3335 35.68 16.219c19.624 8.9206 35.752 16.194 35.84 16.164 0.088-0.0304 16.18-7.3382 35.76-16.24zm84.4 1.2039-36.32-16.517 0.0348-0.5485c0.0997-1.5702 0.0968-2.0501-0.0164-2.7085l-0.12381-0.72 33.973-15.429c18.685-8.4858 34.138-15.461 34.341-15.5 0.22818-0.0443 0.50194 0.0533 0.72 0.25672 0.57411 0.53565 1.882 1.1134 2.9602 1.3076 1.6624 0.29951 3.4163-0.083 4.8718-1.0624 0.48314-0.32514 0.96387-0.53075 1.154-0.4936 0.17923 0.035 15.614 7.0065 34.298 15.492l33.973 15.428-0.12717 0.64c-0.11849 0.59625-0.12512 1.4683-0.0212 2.7891l0.0432 0.54915-36.38 16.531c-20.009 9.092-36.533 16.525-36.72 16.517-0.18714-8e-3 -16.684-7.4469-36.66-16.532zm71.87-0.87653c19.344-8.7902 35.427-16.105 35.741-16.256l0.57102-0.27368-0.026-2.2694-33.198-15.089c-18.259-8.2989-33.275-15.089-33.37-15.089-0.0944 0-0.56666 0.21345-1.0495 0.47497-1.3743 0.74435-2.6863 1.0165-4.4588 0.9249-1.5782-0.0816-2.5045-0.3524-3.5172-1.0285-0.30644-0.20456-0.63044-0.37062-0.72-0.36902-0.0896 2e-3 -15.103 6.7914-33.363 15.089l-33.2 15.086v2.31l35.68 16.226c19.624 8.9242 35.693 16.231 35.71 16.236 0.0163 6e-3 15.856-7.1813 35.2-15.971zm-107.15-17.858c0-0.044-0.036-0.08-0.08-0.08s-0.08 0.036-0.08 0.08 0.036 0.08 0.08 0.08 0.08-0.036 0.08-0.08zm144.32-0.48c0-0.044-0.036-0.08-0.08-0.08s-0.08 0.036-0.08 0.08 0.036 0.08 0.08 0.08 0.08-0.036 0.08-0.08zm47.92 19.2-36.32-16.526 0.0417-0.45691c0.10034-1.0984 0.0918-2.4198-0.0189-2.9369l-0.1199-0.56 34.006-15.44c18.703-8.492 34.149-15.463 34.325-15.491 0.17571-0.0279 0.55895 0.13195 0.85163 0.3552 1.3154 1.0033 3.2764 1.4917 4.9241 1.2263 1.0891-0.17541 2.6041-0.81515 3.1542-1.332 0.32123-0.30177 0.43584-0.32221 0.96048-0.17121 0.62349 0.17945 67.871 30.711 68.069 30.905 0.0625 0.0611 0 0.50122-0.1404 0.978-0.25109 0.85652-0.22552 1.2013 0.18587 2.507 0.0987 0.31341-2.4761 1.5108-36.385 16.92-20.07 9.1205-36.654 16.575-36.853 16.565-0.19856-0.01-16.705-7.4539-36.681-16.543zm72.48-1.1121 35.68-16.219v-2.3385l-4.88-2.2211c-22.766-10.362-60.964-27.71-61.306-27.843-0.35792-0.13916-0.57519-0.0866-1.36 0.32888-1.3534 0.71656-2.4942 1.0053-3.9631 1.0031-1.7806-3e-3 -3.4206-0.47874-4.2968-1.2474-0.23714-0.20805-0.37338-0.2187-0.8-0.0626-0.28282 0.10346-15.303 6.9067-33.377 15.118l-32.863 14.93-0.0168 1.1463-0.0169 1.1463 35.68 16.231c19.624 8.9268 35.716 16.234 35.76 16.239 0.044 4e-3 16.136-7.2904 35.76-16.211zm269.76 13.935c-4.488-2.0446-20.796-9.4587-36.24-16.476-15.444-7.017-28.176-12.817-28.293-12.89-0.17555-0.10856-0.16833-0.28171 0.0411-0.98699 0.28089-0.94586 0.21462-1.6592-0.23783-2.5599-0.62244-1.2392-2.3098-2.4163-3.8376-2.6771l-0.71275-0.12166-0.0808-66.758 36.2-16.446c19.91-9.045 36.388-16.517 36.617-16.603 0.35333-0.13368 0.52528-0.0801 1.1252 0.35079 2.3867 1.714 5.599 1.6725 7.965-0.10296 0.53021-0.39786 0.5676-0.40312 1.2-0.16861 0.94723 0.35126 72.295 32.79 72.533 32.977 0.15885 0.12525 0.2 6.9806 0.2 33.319 0 26.337-0.0412 33.193-0.2 33.32-0.11 0.0873-0.488 0.21013-0.84 0.27294-0.74133 0.13231-2.0913 0.77282-2.5703 1.2195-0.18166 0.16943-0.42254 0.30804-0.53526 0.30804-0.15578 0-45.794-20.672-65.694-29.756-3.0236-1.3802-2.7742-1.1016-2.548-2.8466 0.43322-3.3422-4.0887-5.8113-7.9778-4.3562-3.858 1.4435-4.4166 5.4576-1.0411 7.482 2.1487 1.2886 5.1036 1.2014 7.1573-0.21136 0.45659-0.31408 0.97067-0.54867 1.1424-0.52129 0.1717 0.0274 15.614 6.9978 34.316 15.49l34.003 15.44-0.10782 0.48c-0.10755 0.47875-0.12595 2.1522-0.0331 3.0149l0.0489 0.45494-36.4 16.545c-20.02 9.0996-36.544 16.54-36.72 16.535s-3.992-1.6825-8.48-3.7271zm44.343-13.988 35.657-16.205-0.0244-1.1491-0.0245-1.1491-66.667-30.286-0.5811 0.38456c-1.5058 0.99651-4.1104 1.4317-6.098 1.019-2.0278-0.42103-4.0374-1.947-4.8059-3.6492-0.51476-1.1402-0.48268-2.8682 0.0757-4.0754 2.3622-5.1072 11.517-4.871 13.32 0.34374 0.13477 0.38968 0.24504 1.1919 0.24504 1.7827v1.0742l66.683 30.291 0.73565-0.46652c0.4046-0.25661 1.0608-0.55759 1.4583-0.66887l0.72262-0.20232v-64.565l-35.32-16.042c-19.426-8.8231-35.543-16.147-35.816-16.275-0.46416-0.21799-0.53599-0.2068-1.12 0.17443-1.0522 0.68683-2.5521 1.1002-4.064 1.1199-1.6746 0.0219-2.8143-0.24071-4.1328-0.95234l-1.0128-0.54662-71.654 32.563v64.514l0.68 0.20315c1.0748 0.32111 1.8634 0.77922 2.7187 1.5792 1.1518 1.0773 1.6044 2.0514 1.7127 3.6857l0.0886 1.3373 35.68 16.215c19.624 8.9181 35.727 16.2 35.783 16.183 0.0569-0.0177 16.149-7.3244 35.76-16.237zm-581.58-20.585c-0.69625-0.49883-1.6032-0.8716-2.7223-1.1189l-0.44-0.0973v-66.649l36.52-16.596c20.086-9.1276 36.609-16.594 36.719-16.592 0.10925 2e-3 0.51959 0.24817 0.91189 0.54763 0.68587 0.52354 1.8095 0.98443 2.6495 1.0868l0.4 0.0488v62.536l-0.80664 0.18167c-2.1601 0.48649-3.7893 1.9529-4.1242 3.7122-0.0534 0.28032 0.0106 0.92248 0.14191 1.427 0.1314 0.50452 0.18267 0.96836 0.11392 1.0307-0.21829 0.19805-67.951 30.922-68.285 30.975-0.176 0.0277-0.66096-0.19387-1.0777-0.49243zm29.936-14.111c15.808-7.1837 30.808-14 33.333-15.146l4.5913-2.0849-0.0158-1.2153c-0.0315-2.4258 1.269-4.0971 3.9409-5.0646l0.97229-0.35205 0.0808-60.145-0.68041-0.19883c-0.37423-0.10936-1.0561-0.40812-1.5153-0.66392l-0.83487-0.46509-71.45 32.458-0.0808 64.634 0.76039 0.25361c0.41821 0.13949 1.0484 0.43109 1.4004 0.648 0.352 0.2169 0.66624 0.39661 0.69831 0.39936 0.0321 3e-3 12.992-5.8726 28.8-13.056zm84.262-0.85731c-31.89-14.501-34.077-15.52-34.035-15.869 0.29813-2.471 0.1937-2.9939-0.81689-4.0902-0.83378-0.90454-1.7231-1.4203-2.916-1.6912l-0.95204-0.21623v-62.509l0.95204-0.21622c0.96803-0.21986 2.1058-0.78859 2.4803-1.2399 0.11376-0.13707 0.32401-0.25019 0.46723-0.25139 0.14323-2e-3 16.694 7.4626 36.78 16.586l36.52 16.588v66.661l-0.44 0.0973c-1.099 0.24291-2.035 0.62093-2.7821 1.1237-0.44555 0.29984-0.89287 0.54018-0.99402 0.53412-0.10115-6e-3 -15.52-6.9845-34.264-15.508zm35.47 13.23c0.67623-0.32542 1.3064-0.59169 1.4004-0.59169 0.12073 0 0.15902-9.4858 0.13048-32.328l-0.0404-32.328-71.459-32.477-0.83068 0.47128c-0.45687 0.2592-1.1369 0.56153-1.5111 0.67185l-0.68042 0.20058 0.0808 60.168 0.72 0.18459c1.5726 0.40316 2.9315 1.5091 3.6698 2.9865 0.41884 0.83816 0.49016 1.1592 0.49016 2.2063v1.2254l33.32 15.145c18.326 8.3296 33.356 15.125 33.4 15.101 0.044-0.0242 0.63328-0.31032 1.3095-0.63576zm7.652 1.9462c-0.55624-0.46272-1.7355-1.0373-2.4015-1.1701-0.308-0.0614-0.686-0.14713-0.84-0.19049-0.26552-0.0748-0.28-1.7989-0.28-33.328 0-26.409 0.0411-33.282 0.2-33.407 0.32973-0.25971 72.833-33.162 73.075-33.162 0.12315 0 0.37256 0.13861 0.55422 0.30803 0.47898 0.44666 1.829 1.0872 2.5703 1.2195 0.352 0.0628 0.73 0.18564 0.84 0.27294 0.15877 0.12602 0.2 6.5502 0.2 31.16s-0.0412 31.034-0.2 31.16c-0.11 0.0873-0.452 0.20411-0.76 0.25958-1.0442 0.18805-2.467 0.98614-3.1585 1.7717-0.8434 0.95814-1.068 1.6289-0.93319 2.7871 0.0577 0.49613 0.11999 1.0733 0.13834 1.2825 0.0313 0.35704-2.0663 1.3351-34.047 15.876-18.744 8.5224-34.188 15.495-34.32 15.494-0.132 0-0.41931-0.15022-0.63848-0.33254zm34.432-16.507 33.167-15.071-0.0477-1.0956c-0.0677-1.5558 0.29261-2.5303 1.3121-3.5491 0.80382-0.80323 2.1898-1.5902 3.133-1.7788l0.48251-0.0965v-60.238l-0.72262-0.20232c-0.39744-0.11128-1.0589-0.41557-1.4698-0.6762-0.70469-0.44689-0.77512-0.46073-1.2374-0.24316-0.26958 0.12689-16.384 7.4492-35.81 16.272l-35.32 16.041v64.557l0.6 0.18624c0.33 0.10242 0.96 0.3932 1.4 0.64618 0.44 0.25297 0.92298 0.42867 1.0733 0.39044 0.15031-0.0382 15.198-6.8516 33.44-15.141zm79.407 1.3166c-27.399-12.464-34.075-15.559-34.052-15.786 0.0154-0.1551 0.10568-0.588 0.2008-0.962 0.54334-2.1361-1.4541-4.506-4.1918-4.9733l-0.67685-0.11555v-62.542l0.65493-0.11181c0.87531-0.14944 1.6656-0.492 2.569-1.1135 0.63006-0.43351 0.81256-0.48963 1.1618-0.35731 0.22786 0.0864 16.704 7.5571 36.614 16.602l36.2 16.445v66.681l-0.44 0.0973c-1.1061 0.24448-2.0255 0.61861-2.7576 1.1222-0.4371 0.30068-0.88645 0.54034-0.99857 0.5326-0.11213-8e-3 -15.54-6.9908-34.284-15.518zm35.002 13.469c0.46067-0.25451 1.1078-0.54816 1.438-0.65254l0.60039-0.18978-0.0808-64.654-6.24-2.8343c-3.432-1.5589-19.503-8.8606-35.713-16.226l-29.473-13.392-0.84746 0.46832c-0.4661 0.25758-1.1174 0.55366-1.4474 0.65798l-0.6 0.18965v60.295h0.37445c0.65953 0 2.2806 0.93744 3.0577 1.7682 1.0629 1.1364 1.428 2.0326 1.439 3.5328l9e-3 1.2209 33.28 15.129c18.304 8.3212 33.299 15.134 33.322 15.139 0.0233 5e-3 0.41935-0.19851 0.88-0.45303zm321.84 1.5128c-0.69624-0.49883-1.6032-0.8716-2.7223-1.1189l-0.44-0.0973v-66.662l36.578-16.617c34.467-15.658 36.599-16.604 36.945-16.386 1.5007 0.94392 1.8897 1.139 2.6164 1.3116l0.82115 0.19506v62.593l-0.85955 0.19236c-1.439 0.32202-2.8521 1.377-3.4538 2.5786-0.43536 0.86932-0.49494 1.5009-0.23557 2.4967 0.13141 0.50452 0.18267 0.96785 0.11392 1.0296-0.21941 0.19712-67.952 30.921-68.285 30.975-0.176 0.0283-0.66096-0.19279-1.0777-0.49135zm34.697-16.279 33.14-15.057-0.0104-1.2174c-8e-3 -0.93792 0.074-1.4089 0.35744-2.0516 0.60253-1.3664 2.1006-2.5816 3.8134-3.0933l0.68-0.20315v-60.245l-0.6-0.18965c-0.33-0.10432-0.97896-0.39906-1.4421-0.65499l-0.84213-0.46533-71.436 32.471-0.0808 64.604 0.60038 0.18376c0.33021 0.10105 0.96038 0.39702 1.4004 0.65768 0.44 0.26067 0.908 0.43873 1.04 0.39571 0.132-0.043 15.153-6.8537 33.38-15.135zm-388.98-68.872c-20.064-9.1152-36.54-16.629-36.613-16.697-0.0731-0.0682-0.0133-0.47458 0.13291-0.90311 0.74373-2.1804-0.98161-4.4829-3.9201-5.2315l-0.88-0.22417-0.0772-66.684 36.089-16.4c19.849-9.02 36.322-16.494 36.606-16.609 0.49224-0.19923 0.56429-0.17809 1.4822 0.43487 2.4166 1.6137 5.6636 1.4771 7.9353-0.33397l0.43542-0.34715 2.0446 0.92c1.1245 0.50598 17.597 7.9885 36.605 16.628l34.56 15.708v66.698l-1.0031 0.2228c-1.3482 0.29946-2.8326 1.3021-3.4737 2.3464-0.40329 0.65691-0.48158 0.94792-0.47349 1.76 5e-3 0.53512 0.0631 1.2249 0.12832 1.5329l0.11864 0.56-36.368 16.511c-20.003 9.0808-36.476 16.549-36.608 16.596s-16.656-7.3723-36.72-16.488zm72.299-1.2287 35.659-16.204 0.0276-1.1932c0.0302-1.3058 0.37256-2.2705 1.1626-3.2757 0.58079-0.73898 2.0645-1.7363 3.0897-2.0768l0.80203-0.26638v-64.551l-2.44-1.1033c-1.342-0.60682-17.44-7.9195-35.773-16.25l-33.333-15.147-1.1584 0.59944c-2.5146 1.3012-5.9437 1.2012-8.1168-0.23693l-0.58149-0.38482-71.558 32.523 0.0808 64.602 0.82739 0.29136c2.4642 0.86779 4.0396 2.9076 4.1024 5.3118l0.0302 1.1561 35.6 16.194c19.58 8.9066 35.672 16.199 35.76 16.206 0.088 6e-3 16.207-7.2802 35.819-16.193zm84.613 1.2025-36.528-16.593 0.12269-0.64c0.11446-0.59721 0.11976-1.48 0.0167-2.7884l-0.0432-0.54844 34.08-15.488c18.744-8.5183 34.169-15.489 34.279-15.492 0.10925-2e-3 0.51959 0.2412 0.91189 0.54066 1.0445 0.7973 2.1601 1.1324 3.7695 1.1324s2.725-0.33515 3.7695-1.1324c0.3923-0.29946 0.80373-0.54445 0.91429-0.54445s15.536 6.9677 34.279 15.484l34.078 15.484-0.0364 0.5562c-0.0933 1.4268-0.0867 2.2064 0.0235 2.7962l0.11958 0.64-36.373 16.514c-20.005 9.0825-36.481 16.549-36.613 16.593-0.132 0.0438-16.678-7.3873-36.768-16.514zm72.382-1.2039 35.666-16.211v-2.3128l-4.24-1.9295c-2.332-1.0612-17.308-7.8678-33.28-15.126l-29.04-13.196-0.88 0.47904c-1.3222 0.71974-2.6043 1.0366-4.1716 1.0309-1.6076-6e-3 -2.7995-0.31502-3.8934-1.0101l-0.78502-0.49879-66.577 30.251v2.3075l35.674 16.21c19.621 8.9156 35.716 16.211 35.768 16.213 0.0518 2e-3 16.144-7.2921 35.76-16.208zm86.306 1.9604c-19.14-8.7043-35.577-16.169-36.527-16.588l-1.7274-0.76179 0.11774-0.56c0.11324-0.53854 0.12559-1.9803 0.0252-2.939l-0.0481-0.45899 33.76-15.342c18.568-8.4382 33.981-15.423 34.25-15.522 0.44826-0.16484 0.55435-0.13162 1.2319 0.38555 1.0722 0.8184 2.1764 1.1539 3.7976 1.1539 1.5852 0 2.6508-0.31384 3.8376-1.1302 0.4371-0.30067 0.86208-0.54667 0.9444-0.54667 0.0823 0 15.51 6.9815 34.284 15.514 27.666 12.575 34.129 15.568 34.106 15.8-0.0154 0.15711-0.10568 0.59165-0.2008 0.96565-0.12397 0.48731-0.12397 0.87269 0 1.36 0.0951 0.374 0.18549 0.81851 0.2008 0.98781 0.0236 0.26062-5.5771 2.8544-36.532 16.919-20.108 9.1361-36.596 16.606-36.64 16.6s-15.74-7.1329-34.88-15.837zm70.72-1.9633 35.6-16.194v-2.3598l-66.519-30.216-0.90038 0.47763c-2.6438 1.4025-6.1155 1.377-8.1892-0.0601l-0.62274-0.43155-66.648 30.285 0.0564 2.2912 35.652 16.203c19.608 8.9118 35.724 16.202 35.812 16.201 0.088-2e-3 16.18-7.2897 35.76-16.196zm-267.37-20.523c-0.696-0.52661-1.4524-0.8636-2.4711-1.1009l-0.8-0.18634v-66.696l34.56-15.708c19.008-8.6393 35.475-16.12 36.594-16.623l2.0344-0.91544 0.52562 0.40019c0.76429 0.58189 1.6888 1.0154 2.6456 1.2406l0.84 0.19768v62.492l-0.71152 0.1067c-1.0687 0.16026-2.5543 0.97347-3.2759 1.7933-0.99153 1.1264-1.0647 1.5081-0.77753 4.0548 0.0431 0.38261-1.3077 1.0131-34.023 15.88-18.737 8.5149-34.185 15.482-34.329 15.482-0.14361 0-0.50912-0.18763-0.8122-0.41697zm34.409-16.294 33.2-15.096 0.08-1.4964c0.0673-1.2588 0.15003-1.6156 0.52089-2.2465 0.69493-1.1821 2.1272-2.2099 3.7591-2.6975l0.68-0.20315v-60.139l-0.36-0.0923c-0.198-0.0508-0.87664-0.3587-1.5081-0.68429l-1.1481-0.59195-71.544 32.515v64.538l0.76 0.25349c0.418 0.13942 1.048 0.43096 1.4 0.64787 0.352 0.2169 0.712 0.39317 0.8 0.39171 0.088-2e-3 15.1-6.7958 33.36-15.099zm79.718 1.2941c-18.591-8.4606-33.92-15.458-34.063-15.55-0.22814-0.14573-0.23553-0.24512-0.0582-0.78253 0.4724-1.4314 0.0412-2.9456-1.1435-4.0159-0.76854-0.69434-2.0249-1.3068-2.9719-1.4488l-0.6811-0.10214v-62.497l0.80528-0.1727c0.90155-0.19335 1.8925-0.65368 2.6825-1.2462 0.32531-0.24396 0.63227-0.35607 0.8-0.29215 0.73643 0.28056 72.62 32.957 72.792 33.09 0.15887 0.12211 0.2 6.9955 0.2 33.419 0 26.475-0.0408 33.277-0.2 33.322-0.11 0.0311-0.66561 0.18902-1.2347 0.35081-0.56909 0.16178-1.3437 0.53003-1.7214 0.81832s-0.84806 0.51648-1.0453 0.50709c-0.19723-9e-3 -15.57-6.9394-34.161-15.4zm34.682 13.472c0.308-0.18898 0.92-0.4712 1.36-0.62715l0.8-0.28354 0.0808-64.612-1.6404-0.73876c-0.90221-0.40634-17.003-7.7215-35.781-16.256l-34.14-15.517-0.64637 0.40803c-0.3555 0.22442-1.0124 0.53247-1.4598 0.68453l-0.81344 0.27651v60.097l0.81182 0.26465c2.5975 0.84677 4.0891 2.7382 4.1349 5.2431l0.0217 1.1879 33.196 15.096c18.258 8.3027 33.268 15.101 33.356 15.108s0.412-0.1425 0.72-0.33147zm8.32 1.6199c-0.65964-0.53759-1.5492-0.951-2.5216-1.1718l-0.91839-0.20858v-66.679l36.547-16.608c20.101-9.1343 36.611-16.608 36.689-16.608 0.0784 0 0.43118 0.23203 0.78408 0.51562 0.36328 0.29193 1.2095 0.70014 1.9506 0.94096l1.309 0.42532v62.314l-1.2179 0.35128c-1.4882 0.42924-2.6169 1.2081-3.262 2.2509-0.40072 0.64783-0.47856 0.9372-0.47046 1.7492 5e-3 0.53512 0.0641 1.2249 0.13069 1.5329l0.12099 0.56-34.009 15.44c-18.705 8.492-34.172 15.458-34.371 15.481-0.19888 0.0223-0.54162-0.10616-0.76162-0.28544zm34.454-16.478 33.155-15.068-0.0616-1.0898c-0.071-1.2561 0.10509-1.9006 0.80997-2.9648 0.59386-0.89656 2.043-1.8922 3.2754-2.2505l0.84749-0.24637v-30.149c0-29.764-4e-3 -30.149-0.31139-30.149-0.17126 0-0.84469-0.27597-1.4965-0.61326l-1.1851-0.61327-71.564 32.507-4e-3 64.534 0.76 0.25349c0.418 0.13942 1.048 0.43294 1.4 0.65227s0.77021 0.36869 0.92934 0.3319c0.15914-0.0368 15.209-6.8475 33.444-15.135zm111.07 15.699c-1.32-0.60479-16.62-7.5586-34-15.453s-31.652-14.402-31.715-14.462c-0.0634-0.0595-5e-3 -0.46672 0.12936-0.90487 0.68935-2.2439-0.89088-4.3768-3.854-5.202l-0.96-0.26735-0.0808-62.402 1.0804-0.26391c0.68944-0.16841 1.4218-0.49814 2.0239-0.9112 0.56188-0.38549 1.0472-0.60974 1.2-0.55445 0.14109 0.0511 16.546 7.4887 36.455 16.528l36.198 16.435 4e-3 66.924-0.52 0.0978c-0.69232 0.1302-2.3842 0.93965-2.6596 1.2725-0.12079 0.14593-0.37279 0.26433-0.56 0.2631-0.18723-2e-3 -1.4204-0.49704-2.7404-1.1018zm3.2558-0.88069c0.3352-0.2116 0.92778-0.49234 1.3168-0.62384l0.70734-0.2391 0.0808-64.635-1.9604-0.88693c-1.0782-0.48781-17.176-7.8001-35.773-16.25l-33.812-15.363-0.74777 0.45592c-0.41128 0.25075-1.0538 0.5461-1.4278 0.65632l-0.68 0.20042v60.203l0.76 0.2028c1.5309 0.4085 3.1147 1.7569 3.7544 3.1964 0.23558 0.53011 0.33691 1.1078 0.3488 1.9886l0.0168 1.2414 33.2 15.102c18.26 8.3061 33.291 15.109 33.403 15.119 0.11175 9e-3 0.47744-0.15654 0.81266-0.36816zm-346.51-83.735-36.531-16.6 0.12314-0.48c0.15998-0.62362 0.1581-2.2647-3e-3 -2.8897l-0.12648-0.48965 68.545-31.135 0.42123 0.34245c0.23168 0.18837 0.87415 0.56425 1.4277 0.83534 2.0231 0.99071 4.9353 0.73515 6.6646-0.58481 0.40243-0.30719 0.7756-0.55853 0.82925-0.55853 0.0536 0 15.503 6.9976 34.332 15.55 33.91 15.403 34.233 15.554 34.134 15.96-0.35917 1.4714-0.35939 1.6075-5e-3 3.0499 0.0966 0.39301-0.53806 0.68902-36.307 16.934-20.023 9.0936-36.533 16.564-36.69 16.6-0.15656 0.0363-16.723-7.4039-36.815-16.534zm72.491-1.189 35.64-16.196v-2.2998l-66.669-30.3-0.58683 0.39824c-0.83534 0.56688-2.3978 1.0593-3.72 1.1724-1.4944 0.12782-3.2448-0.25822-4.4434-0.97997l-0.8988-0.54123-66.642 30.279 0.1036 2.2876 35.548 16.171c19.552 8.8939 35.656 16.178 35.788 16.188 0.132 9e-3 16.278-7.2711 35.88-16.179zm84.622 1.2359c-20.008-9.0962-36.452-16.613-36.543-16.704-0.11363-0.11363-0.11211-0.30539 5e-3 -0.61412 0.32758-0.86456 0.34867-1.2902 0.10946-2.2086-0.13264-0.50921-0.22141-0.94486-0.19727-0.96809 0.0242-0.0232 16.388-7.4778 36.364-16.566 21.493-9.7779 36.516-16.526 36.8-16.531 0.30663-5e-3 13.618 5.9665 36.855 16.532l36.375 16.539-0.12794 0.49696c-0.1636 0.6354-0.16507 2.2736-3e-3 2.9008l0.12531 0.48379-36.535 16.596c-20.095 9.1279-36.606 16.593-36.693 16.589-0.0865-4e-3 -16.527-7.4497-36.535-16.546zm72.433-1.2568 35.575-16.19 0.0502-2.2678-4.24-1.9254c-2.332-1.0589-18.352-8.337-35.6-16.173-17.248-7.8364-31.436-14.272-31.528-14.301-0.0923-0.029-16.238 7.2478-35.88 16.171l-35.712 16.224v2.2779l35.64 16.195c19.602 8.9073 35.748 16.192 35.88 16.188s16.249-7.2931 35.815-16.198zm-267.65-20.597c-0.502-0.35057-1.3267-0.73451-1.92-0.89379-0.572-0.15358-1.0929-0.35566-1.1576-0.44907-0.0647-0.0934-0.11755-15.038-0.11755-33.21s0.0529-33.116 0.11755-33.209c0.0646-0.0927 16.554-7.6333 36.644-16.757l36.526-16.588 0.92081 0.62853c0.53187 0.36305 1.3909 0.75733 2.0338 0.93344l1.113 0.30488v62.342l-1.12 0.34477c-1.5587 0.47979-2.0094 0.74626-2.857 1.689-1.0601 1.1791-1.205 1.8823-0.80955 3.9279l0.0959 0.49617-34.219 15.544c-18.82 8.5491-34.253 15.536-34.295 15.527-0.0419-9e-3 -0.47216-0.29291-0.95616-0.63093zm37.04-17.288 30.88-14.035-0.054-1.0503c-0.12492-2.429 1.3422-4.3281 4.0526-5.2456l0.8021-0.27154v-60.23l-0.64-0.21312c-0.352-0.11721-1.0066-0.40704-1.4547-0.64404l-0.81467-0.43093-33.745 15.333c-18.56 8.4332-34.645 15.744-35.745 16.246l-2 0.91245v64.574l0.81469 0.27692c0.44809 0.15231 1.0928 0.45295 1.4327 0.66808l0.61805 0.39116 2.4873-1.1228c1.368-0.61756 16.383-7.4387 33.367-15.158zm77.224 2.3727-34.136-15.528 0.13171-0.65454c0.22245-1.1054 0.13873-2.2065-0.2209-2.9054-0.65609-1.2752-2.3953-2.4535-3.9985-2.709l-0.6804-0.1084 0.0808-62.419 0.96-0.26734c1.0119-0.28178 1.9677-0.74877 2.6491-1.2942l0.40912-0.3275 73.102 33.216 0.0808 66.728-1.108 0.28542c-0.69468 0.17895-1.4435 0.52047-2.0075 0.91554-0.49474 0.34656-0.95032 0.62245-1.0124 0.61305-0.0621-9e-3 -15.474-7.0048-34.249-15.545zm36.146 12.853 0.87016-0.30643 0.0808-64.522-0.8404-0.38126c-0.46221-0.2097-16.392-7.4508-35.4-16.091-19.008-8.6406-34.782-15.782-35.054-15.869-0.41515-0.1335-0.59303-0.0962-1.12 0.23486-0.34456 0.21647-0.95048 0.50088-1.3465 0.63205l-0.72 0.23848-0.0808 60.162 0.68041 0.20083c1.7088 0.50437 3.0764 1.6415 3.8297 3.1841 0.27068 0.55432 0.37344 1.0732 0.39999 2.0195l0.0357 1.2736 66.654 30.285 0.57024-0.37736c0.31363-0.20755 0.9618-0.51527 1.4404-0.68381zm-168.25-72.867c-7.568-3.4536-23.97-10.917-36.45-16.586-20.708-9.4068-22.681-10.335-22.588-10.632 0.38398-1.231 0.41694-1.7016 0.17654-2.5216-0.13545-0.46207-0.1951-0.89103-0.13256-0.95325 0.22517-0.22403 67.804-30.893 68.243-30.97 0.30806-0.0542 0.55912 0.0217 0.8 0.24182 1.8732 1.7116 5.6667 1.7976 7.9206 0.17957 0.44602-0.32017 0.81928-0.47022 1.0568-0.42481 0.20198 0.0386 15.648 7.0122 34.324 15.497l33.956 15.427-0.12445 0.56c-0.11456 0.51552-0.12506 1.8293-0.0234 2.9335l0.0417 0.45352-36.24 16.475c-19.932 9.061-36.456 16.503-36.72 16.538-0.37042 0.0489-3.6213-1.3702-14.24-6.216zm49.939-11.438 35.661-16.214-0.03-2.2917-66.656-30.294-0.58746 0.38876c-1.2096 0.80048-2.3464 1.095-4.2464 1.1004-1.9576 5e-3 -3.0225-0.25687-4.1503-1.0224l-0.6497-0.44102-25.44 11.568c-13.992 6.3624-28.978 13.171-33.302 15.13l-7.8622 3.5619v2.3076l35.702 16.236c19.636 8.9296 35.747 16.224 35.802 16.211 0.0547-0.0138 16.147-7.3214 35.76-16.239zm36.541-18.186c0-0.044-0.036-0.08-0.08-0.08s-0.08 0.036-0.08 0.08 0.036 0.08 0.08 0.08 0.08-0.036 0.08-0.08zm-146.72-2.1821c-0.55624-0.46272-1.7355-1.0373-2.4015-1.1701-0.308-0.0614-0.68618-0.1472-0.84038-0.19062-0.26618-0.075-0.27832-1.7672-0.24-33.434l0.0404-33.355 36.437-16.554c20.04-9.1046 36.554-16.554 36.697-16.554s0.48653 0.19091 0.76324 0.42425c0.60233 0.50793 1.3421 0.84182 2.4231 1.0936l0.8 0.18634v62.527l-0.72 0.12258c-1.2186 0.20745-2.6624 1.0229-3.3489 1.8913-0.84938 1.0746-1.0822 2.0907-0.74496 3.2509 0.13963 0.4803 0.25387 0.90859 0.25387 0.95173 0 0.10123-68.356 31.154-68.564 31.147-0.0861-3e-3 -0.33579-0.15448-0.55496-0.3368zm34.205-16.45 33.252-15.112-7e-3 -1.288c-8e-3 -1.5278 0.34682-2.4086 1.3919-3.4537 0.69806-0.69806 2.0802-1.4774 2.9566-1.6672l0.52-0.11256v-60.27l-0.6-0.18965c-0.33-0.10431-0.98362-0.40169-1.4525-0.66083l-0.85249-0.47118-71.415 32.45-0.0808 64.636 0.60039 0.18633c0.3302 0.1025 0.96038 0.39375 1.4004 0.64725 0.44 0.25349 0.85274 0.45107 0.91718 0.43909 0.0645-0.012 15.081-6.8222 33.369-15.134zm102.35 11.59c-6.248-2.8484-21.584-9.8242-34.08-15.502-22.629-10.281-22.72-10.325-22.679-10.77 0.0226-0.24576 0.085-0.85683 0.1386-1.3579 0.12532-1.1709-0.28626-2.0755-1.4-3.0768-0.74531-0.67009-2.1958-1.3721-2.8351-1.3721-0.15588 0-0.40565-0.09-0.55506-0.2-0.25414-0.18712-0.26899-2.198-0.23058-31.223 0.0362-27.388 0.0692-31.037 0.28106-31.143 0.132-0.0661 0.65067-0.23856 1.1526-0.38328s1.2832-0.51249 1.7361-0.81727c0.45291-0.30479 0.91771-0.55416 1.0329-0.55416 0.14557 0 63.023 28.492 72.758 32.969l0.44 0.20236v66.643l-0.52 0.10399c-1.138 0.22755-2.0902 0.61846-2.7695 1.137-0.3923 0.29945-0.80264 0.53929-0.91188 0.53301-0.10924-6e-3 -5.3106-2.342-11.559-5.1904zm12.152 3.1433c0.39762-0.25216 1.0483-0.54956 1.4459-0.6609l0.72301-0.20243-0.0808-64.632-71.474-32.468-1.0629 0.55031c-0.58459 0.30266-1.2611 0.59695-1.5033 0.65398l-0.44041 0.10368 0.0808 60.198 0.73131 0.18568c1.5119 0.3839 2.9342 1.541 3.6904 3.0025 0.26017 0.50283 0.37428 1.0561 0.42529 2.0621l0.0697 1.3749 33.302 15.137c18.316 8.3255 33.317 15.141 33.336 15.145 0.0189 4e-3 0.35976-0.19856 0.75737-0.45072zm8.1682 1.6529c-0.64696-0.53109-1.678-1.0031-2.6434-1.2101l-0.79659-0.17084v-66.644l36.36-16.531c19.998-9.0918 36.526-16.564 36.728-16.605 0.22832-0.0461 0.50181 0.0481 0.72 0.24785 0.49811 0.45611 1.5703 0.96861 2.5519 1.2198l0.83989 0.21495v62.482l-1.0706 0.26949c-1.3119 0.33024-2.5481 1.1386-3.1739 2.0754-0.5557 0.83184-0.70382 1.4877-0.57155 2.5306 0.0534 0.42149 0.11493 0.93157 0.13662 1.1335 0.0366 0.34063-2.4261 1.4874-34.102 15.88-18.778 8.5321-34.222 15.51-34.32 15.507-0.0983-3e-3 -0.39469-0.18306-0.65869-0.39978zm29.8-14.335c15.906-7.2272 30.918-14.048 33.36-15.157l4.44-2.0164 2e-3 -1.2832c2e-3 -1.5833 0.41427-2.575 1.4759-3.5496 0.81039-0.74395 1.4042-1.0848 2.5943-1.4894l0.80821-0.2747 0.0808-60.134-0.84042-0.29165c-0.46222-0.1604-1.1176-0.47114-1.4564-0.69051-0.55953-0.36236-0.66193-0.37981-1.1185-0.1907-0.2764 0.11449-16.379 7.4207-35.784 16.236l-35.282 16.028-0.0808 64.616 0.84038 0.26549c0.46221 0.14601 1.0924 0.44368 1.4004 0.66148 0.308 0.21781 0.57803 0.39956 0.60008 0.40388 0.0221 4e-3 13.054-5.9053 28.96-13.133zm-225.16-69.988c-18.656-8.4846-35-15.92-36.32-16.524-2.3451-1.0724-2.3988-1.1082-2.3493-1.5624 0.0279-0.25568 0.0507-0.93288 0.0507-1.5049s-0.0228-1.2514-0.0507-1.5097l-0.0507-0.46973 34.08-15.49c18.744-8.5194 34.174-15.49 34.289-15.49 0.11517-3.2e-4 0.47856 0.21582 0.80757 0.48021 2.211 1.7768 6.2973 1.565 8.292-0.42969 2.5193-2.5193 1.0256-6.1289-2.9023-7.0135l-0.80664-0.18167-0.0404-31.217c-0.0384-29.631-0.0262-31.221 0.24-31.296 0.15422-0.04343 0.5324-0.12716 0.8404-0.18608 0.308-0.05891 1.0235-0.35833 1.5899-0.66537 0.84272-0.45679 1.1626-0.5476 1.76-0.49965 0.5527 0.04437 9.4853 4.039 36.77 16.444l36.04 16.385-0.0808 66.715-0.8 0.18634c-1.2325 0.28708-1.914 0.63196-2.7238 1.3785-1.3098 1.2073-1.7407 2.5169-1.2762 3.8786 0.14616 0.42853 0.20598 0.83368 0.13291 0.90033-0.34875 0.31815-72.857 33.119-73.19 33.11-0.21045-6e-3 -15.647-6.953-34.303-15.438zm70.08-2.2068 35.68-16.215 0.0236-1.1283c0.0519-2.484 1.7739-4.6176 4.4168-5.4724l0.60039-0.19418-0.0808-64.634-2.24-1.0118c-1.232-0.5565-17.296-7.8522-35.698-16.213l-33.458-15.201-1.2386 0.62248c-0.68121 0.34236-1.339 0.62248-1.4618 0.62248-0.19014 0-0.2232 4.4666-0.2232 30.16 0 26.358 0.0295 30.16 0.234 30.16 0.66763 0 2.0911 0.73571 2.9348 1.5168 4.1316 3.8251 1.0124 9.6956-5.1688 9.728-1.6871 0.0088-3.0007-0.3221-4.1289-1.0402l-0.76894-0.4894-1.6311 0.73606c-0.89708 0.40483-15.88 7.2112-33.296 15.125l-31.665 14.389v2.3069l35.665 16.213c19.616 8.9174 35.701 16.218 35.745 16.223 0.044 6e-3 16.136-7.2866 35.76-16.205zm-110.16-20.453c-0.56121-0.47421-1.9283-1.0822-2.7482-1.2221l-0.69179-0.11809-0.0404-33.296c-0.0322-26.521 0-33.326 0.16-33.446 0.11021-0.08284 16.402-7.5078 36.203-16.5 29.325-13.317 36.126-16.349 36.669-16.349 0.45945 0 0.90635 0.14764 1.4374 0.47485 0.42384 0.26117 1.1855 0.58145 1.6925 0.71174s0.99306 0.28086 1.08 0.33459c0.18598 0.11494 0.22139 61.976 0.0356 62.256-0.0646 0.09731-0.40555 0.22825-0.75755 0.29099-1.6336 0.29115-3.3048 1.4613-3.9292 2.7512-0.28365 0.58593-0.32992 0.88709-0.25042 1.6298 0.0536 0.5011 0.116 1.1252 0.1386 1.3868l0.0411 0.47575-34.08 15.484c-18.744 8.5163-34.188 15.482-34.32 15.479s-0.42-0.15741-0.64-0.3433zm29.307-14.146c15.605-7.092 30.605-13.908 33.333-15.146l4.96-2.2515-0.0546-1.036c-0.0301-0.56977 0.0302-1.3392 0.13401-1.7097 0.42178-1.5064 2.0244-2.9452 3.9606-3.5557l0.84-0.26488v-60.211l-0.68-0.19871c-0.374-0.10929-1.0464-0.40278-1.4943-0.65221l-0.81436-0.4535-71.571 32.514v64.537l0.92 0.33907c0.506 0.18649 1.136 0.47887 1.4 0.64974s0.52813 0.31594 0.58695 0.32237c0.0588 6e-3 12.875-5.7909 28.48-12.883z" fill="url(#linearGradient42044)" stop-color="#000000" style="-inkscape-stroke:none;font-variation-settings:normal"/>
	</g>
</svg>
