<?xml version="1.0" encoding="UTF-8" standalone="no"?>
<!-- Created with Inkscape (http://www.inkscape.org/) -->

<svg
   width="95.527168mm"
   height="33.556019mm"
   viewBox="0 0 95.527166 33.556019"
   version="1.1"
   id="svg5"
   inkscape:version="1.2.1 (9c6d41e410, 2022-07-14)"
   sodipodi:docname="baktz-logo-optimized.svg"
   xmlns:inkscape="http://www.inkscape.org/namespaces/inkscape"
   xmlns:sodipodi="http://sodipodi.sourceforge.net/DTD/sodipodi-0.dtd"
   xmlns="http://www.w3.org/2000/svg"
   xmlns:svg="http://www.w3.org/2000/svg">
  <sodipodi:namedview
     id="namedview7"
     pagecolor="#ffffff"
     bordercolor="#666666"
     borderopacity="1.0"
     inkscape:showpageshadow="2"
     inkscape:pageopacity="0.5254902"
     inkscape:pagecheckerboard="true"
     inkscape:deskcolor="#d1d1d1"
     inkscape:document-units="mm"
     showgrid="false"
     showguides="true"
     inkscape:zoom="3.659624"
     inkscape:cx="101.37653"
     inkscape:cy="84.844782"
     inkscape:window-width="3840"
     inkscape:window-height="2081"
     inkscape:window-x="0"
     inkscape:window-y="42"
     inkscape:window-maximized="1"
     inkscape:current-layer="layer1">
    <sodipodi:guide
       position="61.541973,23.986695"
       orientation="0,-1"
       id="guide1680"
       inkscape:locked="false" />
    <sodipodi:guide
       position="24.509006,6.4442864"
       orientation="0,-1"
       id="guide3860"
       inkscape:locked="false" />
  </sodipodi:namedview>
  <defs
     id="defs2" />
  <g
     inkscape:label="Layer 1"
     inkscape:groupmode="layer"
     id="layer1"
     transform="translate(-27.485754,-76.283461)">
    <g
       aria-label="bāk"
       id="text236"
       style="font-weight:bold;font-size:35.2777px;font-family:Georgia;-inkscape-font-specification:'Georgia Bold';letter-spacing:0px;word-spacing:0px;fill:#ffffff;stroke-width:0.264583px">
      <path
         d="m 49.379287,94.525201 q 0,3.875724 -2.56659,6.425089 -2.549365,2.54936 -6.476765,2.54936 -1.515839,0 -2.618267,-0.22393 -1.085203,-0.2067 -1.843122,-0.51676 -0.79237,-0.32728 -1.274682,-0.63734 -0.465087,-0.32728 -0.740694,-0.53399 l -2.463238,2.23931 -1.016301,-0.39619 q 0.08613,-1.25745 0.137804,-2.72162 0.0689,-1.481384 0.0689,-3.979073 v -16.12301 q 0,-0.654567 -0.275607,-1.205781 -0.258381,-0.56844 -0.706243,-0.861272 Q 29.2772,78.333289 28.639859,78.17826 28.019743,78.023231 27.485754,77.98878 v -1.257457 l 8.509367,-0.447862 0.258382,0.275607 v 11.196536 h 0.103352 q 1.257457,-1.223007 2.583816,-1.791446 1.326359,-0.56844 2.652718,-0.56844 3.617342,0 5.70162,2.463238 2.084278,2.463238 2.084278,6.666245 z m -6.183933,0.206705 q 0,-1.309133 -0.206705,-2.514914 -0.18948,-1.223006 -0.654566,-2.15318 -0.465087,-0.930173 -1.223007,-1.481387 -0.757919,-0.56844 -1.877572,-0.56844 -1.050752,0 -1.73977,0.344509 -0.689017,0.344509 -1.240231,1.016301 V 99.4 q 0.103352,0.344509 0.378959,0.91295 0.292833,0.55121 0.585665,0.86127 0.413411,0.44786 0.878498,0.68902 0.465086,0.22393 1.309133,0.22393 1.756995,0 2.773296,-1.91203 1.0163,-1.929244 1.0163,-5.443234 z"
         id="path293" />
      <path
         d="m 71.290045,102.58671 q -0.757919,0.32728 -1.791446,0.60289 -1.033526,0.2756 -2.18763,0.2756 -2.118729,0 -3.117805,-0.62011 -0.999075,-0.63734 -1.360809,-1.80867 h -0.103353 q -0.585665,0.58566 -1.136879,0.99907 -0.533989,0.41341 -1.154104,0.70625 -0.809596,0.37895 -1.567515,0.55121 -0.740694,0.18948 -2.084278,0.18948 -1.998151,0 -3.410637,-1.17133 -1.412486,-1.18856 -1.412486,-3.135031 0,-1.119653 0.310058,-1.894798 0.310057,-0.79237 0.878497,-1.39526 0.516763,-0.551214 1.188555,-0.912949 0.689018,-0.361734 1.498613,-0.671792 1.55029,-0.568439 3.720695,-1.17133 2.170405,-0.620115 3.169481,-1.102428 V 90.37387 q 0,-0.430636 -0.0689,-1.136879 -0.0689,-0.706243 -0.292832,-1.188555 -0.241156,-0.551214 -0.75792,-0.930174 -0.516763,-0.378959 -1.360809,-0.378959 -0.75792,0 -1.274683,0.22393 -0.499537,0.206706 -0.809595,0.430636 0.05168,0.344509 0.292832,1.050752 0.241156,0.706243 0.241156,1.36081 0,0.292832 -0.155029,0.740694 -0.155029,0.430636 -0.447861,0.689017 -0.396185,0.344509 -0.895723,0.533989 -0.482312,0.18948 -1.498613,0.18948 -1.446937,0 -2.187631,-0.689018 Q 52.7727,90.56335 52.7727,89.443697 q 0,-0.964625 0.75792,-1.722544 0.775144,-0.775145 1.877572,-1.274683 1.085203,-0.516763 2.497689,-0.79237 1.412486,-0.292832 2.618267,-0.292832 1.670867,0 3.066128,0.206705 1.39526,0.18948 2.514914,0.809595 1.067977,0.602891 1.688093,1.756995 0.637341,1.136879 0.637341,2.980001 0,1.946475 -0.08613,4.616418 -0.0689,2.669943 -0.0689,3.513989 0,0.775149 0.223931,1.223009 0.241156,0.44786 0.723468,0.67179 0.292833,0.1378 0.912949,0.17225 0.637341,0.0172 1.154104,0.0172 z m -8.561043,-8.974457 q -0.964625,0.327283 -1.912024,0.757919 -0.947399,0.413411 -1.550289,0.878497 -0.637342,0.482313 -0.999076,1.240232 -0.361734,0.740694 -0.361734,1.756995 0,1.343584 0.60289,1.946474 0.620116,0.60289 1.515839,0.60289 0.947399,0 1.550289,-0.37896 0.620116,-0.39618 1.085203,-0.964624 z M 67.397096,81.485544 H 54.512468 v -2.980001 h 12.884628 z"
         id="path295" />
      <path
         d="m 94.71664,102.94844 h -8.113182 q -1.498613,-2.63549 -2.738844,-4.461388 -1.240232,-1.843122 -2.34266,-3.410637 l -1.033526,0.878497 v 3.755146 q 0,0.620112 0.172254,1.016302 0.18948,0.39618 0.706243,0.58566 0.310058,0.13781 0.723468,0.24116 0.413411,0.10335 0.826822,0.1378 v 1.25746 H 72.254668 v -1.25746 q 0.430636,-0.0344 0.861272,-0.0861 0.430636,-0.0689 0.757919,-0.17226 0.551214,-0.18948 0.740694,-0.58566 0.206705,-0.39619 0.206705,-1.033529 V 80.607047 q 0,-0.56844 -0.258381,-1.17133 -0.241156,-0.620116 -0.723469,-0.930174 -0.327283,-0.206705 -0.98185,-0.344509 -0.654566,-0.137803 -1.188555,-0.172254 v -1.257457 l 8.561043,-0.447862 0.258382,0.275607 v 17.776653 q 1.274682,-1.136879 2.859423,-2.635492 1.601965,-1.498613 2.56659,-2.480463 0.568439,-0.585665 0.620116,-0.878497 0.0689,-0.310058 0.0689,-0.37896 0,-0.310058 -0.551214,-0.516763 -0.533988,-0.206706 -1.619191,-0.361735 v -1.223006 h 8.750523 v 1.188556 q -1.722544,0.482312 -2.635492,0.912948 -0.895723,0.41341 -1.9637,1.119653 -0.706243,0.465087 -1.378035,0.98185 -0.654567,0.499538 -1.515839,1.257457 1.688093,2.446013 3.117805,4.530291 1.429711,2.084278 2.997226,4.40971 0.533989,0.8096 1.326359,1.0852 0.79237,0.27561 1.58474,0.34451 z"
         id="path297" />
    </g>
    <g
       aria-label="ꜩ"
       id="text1570"
       style="font-weight:bold;font-size:33.2872px;font-family:Georgia;-inkscape-font-specification:'Georgia Bold';letter-spacing:0px;word-spacing:0px;fill:#9eafff;stroke-width:0.249655px">
      <path
         d="m 97.218592,87.767206 h -2.503041 v -1.966675 h 2.503041 V 80.43687 h 5.753748 v 5.363661 h 17.96013 v 1.934168 l -5.91628,7.99673 q 3.57578,0.341324 5.39617,1.706619 2.60056,1.966676 2.60056,5.379912 0,3.39699 -2.69808,5.20113 -2.68183,1.82039 -7.78544,1.82039 -1.91791,0 -3.96585,-0.32507 -2.03169,-0.32507 -4.25842,-0.97521 v -5.02234 q -0.47136,0.0325 -0.99147,0.0325 -3.559519,0 -4.827294,-1.10524 -1.267774,-1.12149 -1.267774,-4.095885 z m 16.968668,0 h -11.21492 v 10.581039 q 0,2.259235 0.35757,2.811855 0.35758,0.55262 1.30029,0.55262 1.04022,0 1.54408,-0.6989 0.50386,-0.6989 0.53637,-2.161716 h 2.42177 q -0.16254,2.600566 -1.43031,3.640786 -0.55262,0.4551 -1.43031,0.71516 0.17879,2.308 1.44656,3.51076 1.26778,1.21901 3.51076,1.21901 2.47054,0 3.81958,-1.38155 1.34904,-1.36529 1.34904,-3.88459 0,-2.63307 -1.41405,-4.063379 -1.39781,-1.430309 -3.98212,-1.430309 h -1.07273 v -3.657041 z"
         id="path306" />
    </g>
  </g>
</svg>
