<?xml version="1.0" encoding="UTF-8" standalone="no"?>
<!-- Created with Inkscape (http://www.inkscape.org/) -->

<svg
   width="140.04726mm"
   height="48.716404mm"
   viewBox="0 0 140.04726 48.716404"
   version="1.1"
   id="svg5"
   inkscape:version="1.1.2 (0a00cf5339, 2022-02-04)"
   sodipodi:docname="baktz-logo.svg"
   xmlns:inkscape="http://www.inkscape.org/namespaces/inkscape"
   xmlns:sodipodi="http://sodipodi.sourceforge.net/DTD/sodipodi-0.dtd"
   xmlns="http://www.w3.org/2000/svg"
   xmlns:svg="http://www.w3.org/2000/svg">
  <sodipodi:namedview
     id="namedview7"
     pagecolor="#ffffff"
     bordercolor="#666666"
     borderopacity="1.0"
     inkscape:pageshadow="2"
     inkscape:pageopacity="0.0"
     inkscape:pagecheckerboard="true"
     inkscape:document-units="mm"
     showgrid="false"
     showguides="true"
     inkscape:guide-bbox="true"
     inkscape:zoom="5.6568543"
     inkscape:cx="275.24131"
     inkscape:cy="93.249706"
     inkscape:window-width="3840"
     inkscape:window-height="2081"
     inkscape:window-x="0"
     inkscape:window-y="42"
     inkscape:window-maximized="1"
     inkscape:current-layer="text2297"
     showborder="true"
     fit-margin-top="0"
     fit-margin-left="0"
     fit-margin-right="0"
     fit-margin-bottom="0">
    <sodipodi:guide
       position="96.862605,37.318341"
       orientation="1,0"
       id="guide5534" />
    <sodipodi:guide
       position="100.69464,36.386093"
       orientation="1,0"
       id="guide5536" />
    <sodipodi:guide
       position="109.45896,37.459211"
       orientation="1,0"
       id="guide5560" />
    <sodipodi:guide
       position="113.2985,36.745709"
       orientation="1,0"
       id="guide5562" />
  </sodipodi:namedview>
  <defs
     id="defs2">
    <rect
       x="385.96654"
       y="271.69524"
       width="179.52069"
       height="142.78571"
       id="rect58440" />
    <rect
       x="645.80103"
       y="291.29993"
       width="105.02448"
       height="48.339844"
       id="rect27530" />
    <rect
       x="702.00427"
       y="599.62579"
       width="233.13091"
       height="183.07094"
       id="rect22215" />
    <rect
       x="63.262058"
       y="273.17093"
       width="571.37956"
       height="199.20324"
       id="rect2299" />
  </defs>
  <g
     inkscape:label="Layer 1"
     inkscape:groupmode="layer"
     id="layer1"
     transform="translate(-14.073881,-64.646312)">
    <g
       aria-label="bākꜩ"
       transform="matrix(0.26458333,0,0,0.26458333,-2.1680213,0.80945446)"
       id="text2297"
       style="font-weight:bold;font-size:192px;line-height:120px;font-family:Georgia;-inkscape-font-specification:'Georgia Bold';letter-spacing:0px;word-spacing:0px;white-space:pre;shape-inside:url(#rect2299);stroke-width:1.00157">
      <path
         d="m 180.54297,340.55442 q 0,21.09375 -13.96875,34.96875 -13.875,13.875 -35.25,13.875 -8.25,0 -14.25,-1.21875 -5.90625,-1.125 -10.03125,-2.8125 -4.3125,-1.78125 -6.9375,-3.46875 -2.531251,-1.78125 -4.031251,-2.90625 l -13.40625,12.1875 -5.53125,-2.15625 q 0.46875,-6.84375 0.75,-14.8125 0.375,-8.0625 0.375,-21.65625 v -87.75 q 0,-3.5625 -1.5,-6.5625 -1.40625,-3.09375 -3.84375,-4.6875 -1.78125,-1.125 -5.25,-1.96875 -3.375,-0.84375 -6.28125,-1.03125 v -6.84375 l 46.312501,-2.4375 1.40625,1.5 v 60.9375 h 0.5625 q 6.84375,-6.65625 14.0625,-9.75 7.21875,-3.09375 14.4375,-3.09375 19.6875,0 31.03125,13.40625 11.34375,13.40625 11.34375,36.28125 z m -33.65625,1.125 q 0,-7.125 -1.125,-13.6875 -1.03125,-6.65625 -3.5625,-11.71875 -2.53125,-5.0625 -6.65625,-8.0625 -4.125,-3.09375 -10.21875,-3.09375 -5.71875,0 -9.46875,1.875 -3.75,1.875 -6.75,5.53125 v 54.5625 q 0.5625,1.875 2.0625,4.96875 1.59375,3 3.1875,4.6875 2.25,2.4375 4.78125,3.75 2.53125,1.21875 7.125,1.21875 9.5625,0 15.09375,-10.40625 5.53125,-10.5 5.53125,-29.625 z"
         id="path977" />
      <path
         d="m 299.79297,384.42942 q -4.125,1.78125 -9.75,3.28125 -5.625,1.5 -11.90625,1.5 -11.53125,0 -16.96875,-3.375 -5.4375,-3.46875 -7.40625,-9.84375 h -0.5625 q -3.1875,3.1875 -6.1875,5.4375 -2.90625,2.25 -6.28125,3.84375 -4.40625,2.0625 -8.53125,3 -4.03125,1.03125 -11.34375,1.03125 -10.875,0 -18.5625,-6.375 -7.6875,-6.46875 -7.6875,-17.0625 0,-6.09375 1.6875,-10.3125 1.6875,-4.3125 4.78125,-7.59375 2.8125,-3 6.46875,-4.96875 3.75,-1.96875 8.15625,-3.65625 8.4375,-3.09375 20.25,-6.375 11.8125,-3.375 17.25,-6 v -9 q 0,-2.34375 -0.375,-6.1875 -0.375,-3.84375 -1.59375,-6.46875 -1.3125,-3 -4.125,-5.0625 -2.8125,-2.0625 -7.40625,-2.0625 -4.125,0 -6.9375,1.21875 -2.71875,1.125 -4.40625,2.34375 0.28125,1.875 1.59375,5.71875 1.3125,3.84375 1.3125,7.40625 0,1.59375 -0.84375,4.03125 -0.84375,2.34375 -2.4375,3.75 -2.15625,1.875 -4.875,2.90625 -2.625,1.03125 -8.15625,1.03125 -7.875,0 -11.90625,-3.75 -4.03125,-3.84375 -4.03125,-9.9375 0,-5.25 4.125,-9.375 4.21875,-4.21875 10.21875,-6.9375 5.90625,-2.8125 13.59375,-4.3125 7.6875,-1.59375 14.25,-1.59375 9.09375,0 16.6875,1.125 7.59375,1.03125 13.6875,4.40625 5.8125,3.28125 9.1875,9.5625 3.46875,6.1875 3.46875,16.21875 0,10.59375 -0.46875,25.125 -0.375,14.53125 -0.375,19.125 0,4.21875 1.21875,6.65625 1.3125,2.4375 3.9375,3.65625 1.59375,0.75 4.96875,0.9375 3.46875,0.0937 6.28125,0.0937 z m -46.59375,-48.84375 q -5.25,1.78125 -10.40625,4.125 -5.15625,2.25 -8.4375,4.78125 -3.46875,2.625 -5.4375,6.75 -1.96875,4.03125 -1.96875,9.5625 0,7.3125 3.28125,10.59375 3.375,3.28125 8.25,3.28125 5.15625,0 8.4375,-2.0625 3.375,-2.15625 5.90625,-5.25 z m 25.40625,-66 h -70.125 v -16.21875 h 70.125 z"
         id="path979" />
      <path
         d="m 427.29297,386.39817 h -44.15625 q -8.15625,-14.34375 -14.90625,-24.28125 -6.75,-10.03125 -12.75,-18.5625 l -5.625,4.78125 v 20.4375 q 0,3.375 0.9375,5.53125 1.03125,2.15625 3.84375,3.1875 1.6875,0.75 3.9375,1.3125 2.25,0.5625 4.5,0.75 v 6.84375 h -58.03125 v -6.84375 q 2.34375,-0.1875 4.6875,-0.46875 2.34375,-0.375 4.125,-0.9375 3,-1.03125 4.03125,-3.1875 1.125,-2.15625 1.125,-5.625 V 264.80442 q 0,-3.09375 -1.40625,-6.375 -1.3125,-3.375 -3.9375,-5.0625 -1.78125,-1.125 -5.34375,-1.875 -3.5625,-0.75 -6.46875,-0.9375 v -6.84375 l 46.59375,-2.4375 1.40625,1.5 v 96.75 q 6.9375,-6.1875 15.5625,-14.34375 8.71875,-8.15625 13.96875,-13.5 3.09375,-3.1875 3.375,-4.78125 0.375,-1.6875 0.375,-2.0625 0,-1.6875 -3,-2.8125 -2.90625,-1.125 -8.8125,-1.96875 v -6.65625 h 47.625 v 6.46875 q -9.375,2.625 -14.34375,4.96875 -4.875,2.25 -10.6875,6.09375 -3.84375,2.53125 -7.5,5.34375 -3.5625,2.71875 -8.25,6.84375 9.1875,13.3125 16.96875,24.65625 7.78125,11.34375 16.3125,24 2.90625,4.40625 7.21875,5.90625 4.3125,1.5 8.625,1.875 z"
         id="path981" />
      <path
         id="path983"
         d="M 427.39844 45.46875 L 427.39844 56.8125 L 478.40625 56.8125 L 453.84375 90 L 453.84375 111.09375 L 460.03125 111.09375 C 469.96875 111.09375 477.625 113.84375 483 119.34375 C 488.4375 124.84375 491.15625 132.65625 491.15625 142.78125 C 491.15625 152.46875 488.5625 159.9375 483.375 165.1875 C 478.1875 170.5 470.84375 173.15625 461.34375 173.15625 C 452.71875 173.15625 445.96875 170.8125 441.09375 166.125 C 436.21875 161.5 433.4375 154.75 432.75 145.875 C 432.75 145.875 432.41571 145.95623 431.82031 146.08594 C 431.22491 146.21565 430.36772 146.39311 429.32422 146.58594 C 428.28071 146.77877 427.05135 146.98642 425.70703 147.17578 C 425.03487 147.27046 424.33303 147.36203 423.61328 147.44336 C 422.89353 147.52469 422.15517 147.5966 421.40625 147.65625 L 421.40625 176.625 C 429.96875 179.125 438.15625 181 445.96875 182.25 C 453.84375 183.5 461.46875 184.125 468.84375 184.125 C 488.46875 184.125 503.4375 180.625 513.75 173.625 C 524.125 166.6875 529.3125 156.6875 529.3125 143.625 C 529.3125 130.5 524.3125 120.15625 514.3125 112.59375 C 507.3125 107.34375 496.9375 104.0625 483.1875 102.75 L 517.3125 56.625 L 517.3125 45.46875 L 427.39844 45.46875 z "
         transform="translate(61.386718,241.27317)"
         style="stroke:none;stroke-opacity:1;fill:#000000;fill-opacity:0.2;stroke-width:1.00157481;stroke-miterlimit:4;stroke-dasharray:none" />
      <path
         id="path2222"
         d="m 380.53125,14.53125 v 30.9375 h -14.4375 V 56.8125 h 14.4375 v 61.03125 c 0,11.4375 2.4375,19.3125 7.3125,23.625 4.875,4.25 14.15625,6.375 27.84375,6.375 2,0 3.90625,-0.0625 5.71875,-0.1875 0.74892,-0.0597 1.48728,-0.13156 2.20703,-0.21289 0.71975,-0.0813 1.42159,-0.1729 2.09375,-0.26758 1.34432,-0.18936 2.57368,-0.39701 3.61719,-0.58984 1.0435,-0.19283 1.90069,-0.37029 2.49609,-0.5 0.5954,-0.12971 0.92969,-0.21094 0.92969,-0.21094 3.375,-1 6.125,-2.375 8.25,-4.125 4.875,-4 7.625,-11 8.25,-21 h -13.96875 c -0.125,5.625 -1.15625,9.78125 -3.09375,12.46875 -1.9375,2.6875 -4.90625,4.03125 -8.90625,4.03125 -3.625,0 -6.125,-1.0625 -7.5,-3.1875 -1.375,-2.125 -2.0625,-7.53125 -2.0625,-16.21875 V 56.8125 h 14.49603 V 45.46875 h -14.49603 v -30.9375 z"
         transform="translate(61.386718,241.27317)"
         sodipodi:nodetypes="cccccscscssssccccsssscccccc" />
    </g>
    <text
       xml:space="preserve"
       transform="scale(0.26458333)"
       id="text22213"
       style="font-style:normal;font-variant:normal;font-weight:normal;font-stretch:normal;font-size:40px;line-height:25px;font-family:'TradeGothic LT CondEighteen';-inkscape-font-specification:'TradeGothic LT CondEighteen';letter-spacing:0px;word-spacing:0px;white-space:pre;shape-inside:url(#rect22215);fill:#000000;fill-opacity:1;stroke:none;stroke-width:1px;stroke-linecap:butt;stroke-linejoin:miter;stroke-opacity:1" />
    <text
       xml:space="preserve"
       transform="scale(0.26458333)"
       id="text27528"
       style="font-style:normal;font-variant:normal;font-weight:normal;font-stretch:normal;font-size:40px;line-height:25px;font-family:'TradeGothic LT CondEighteen';-inkscape-font-specification:'TradeGothic LT CondEighteen';letter-spacing:0px;word-spacing:0px;white-space:pre;shape-inside:url(#rect27530);fill:#000000;fill-opacity:1;stroke:none;stroke-width:1px;stroke-linecap:butt;stroke-linejoin:miter;stroke-opacity:1" />
    <text
       xml:space="preserve"
       transform="matrix(0.26458333,0,0,0.26458333,14.073881,64.646312)"
       id="text58438"
       style="fill:none;stroke:black;stroke-opacity:1;stroke-width:1px;stroke-linejoin:miter;stroke-linecap:butt;font-family:Georgia;font-size:40px;line-height:25px;letter-spacing:0px;word-spacing:0px;-inkscape-font-specification:'Georgia Bold';font-weight:bold;white-space:pre;shape-inside:url(#rect58440)" />
  </g>
  <style
     type="text/css"
     id="style25531">
	.st0{fill:#0D61FF;}
	.st1{fill:#FFFFFF;}
	.st2{fill:#262D33;}
</style>
</svg>
