<?xml version="1.0" encoding="UTF-8" standalone="no"?>
<!-- Created with Inkscape (http://www.inkscape.org/) -->

<svg
   width="140.04726mm"
   height="48.716404mm"
   viewBox="0 0 140.04726 48.716404"
   version="1.1"
   id="svg5"
   inkscape:version="1.1.2 (0a00cf5339, 2022-02-04)"
   sodipodi:docname="baktz-logo.svg"
   xmlns:inkscape="http://www.inkscape.org/namespaces/inkscape"
   xmlns:sodipodi="http://sodipodi.sourceforge.net/DTD/sodipodi-0.dtd"
   xmlns="http://www.w3.org/2000/svg"
   xmlns:svg="http://www.w3.org/2000/svg">
  <sodipodi:namedview
     id="namedview7"
     pagecolor="#ffffff"
     bordercolor="#666666"
     borderopacity="1.0"
     inkscape:pageshadow="2"
     inkscape:pageopacity="0.0"
     inkscape:pagecheckerboard="true"
     inkscape:document-units="mm"
     showgrid="false"
     showguides="true"
     inkscape:guide-bbox="true"
     inkscape:zoom="2.1997092"
     inkscape:cx="245.03239"
     inkscape:cy="178.88728"
     inkscape:window-width="3840"
     inkscape:window-height="2081"
     inkscape:window-x="0"
     inkscape:window-y="42"
     inkscape:window-maximized="1"
     inkscape:current-layer="text2297"
     showborder="true"
     fit-margin-top="0"
     fit-margin-left="0"
     fit-margin-right="0"
     fit-margin-bottom="0" />
  <defs
     id="defs2">
    <rect
       x="385.96654"
       y="271.69524"
       width="179.52069"
       height="142.78571"
       id="rect58440" />
    <rect
       x="645.80103"
       y="291.29993"
       width="105.02448"
       height="48.339844"
       id="rect27530" />
    <rect
       x="702.00427"
       y="599.62579"
       width="233.13091"
       height="183.07094"
       id="rect22215" />
    <rect
       x="63.262058"
       y="273.17093"
       width="571.37956"
       height="199.20324"
       id="rect2299" />
  </defs>
  <g
     inkscape:label="Layer 1"
     inkscape:groupmode="layer"
     id="layer1"
     transform="translate(-14.073881,-64.646312)">
    <g
       aria-label="bākꜩ"
       transform="matrix(0.26458333,0,0,0.26458333,-2.1680213,0.80945446)"
       id="text2297"
       style="font-weight:bold;font-size:192px;line-height:120px;font-family:Georgia;-inkscape-font-specification:'Georgia Bold';letter-spacing:0px;word-spacing:0px;white-space:pre;shape-inside:url(#rect2299);stroke-width:1.00157">
      <path
         d="m 180.54297,340.55442 q 0,21.09375 -13.96875,34.96875 -13.875,13.875 -35.25,13.875 -8.25,0 -14.25,-1.21875 -5.90625,-1.125 -10.03125,-2.8125 -4.3125,-1.78125 -6.9375,-3.46875 -2.531251,-1.78125 -4.031251,-2.90625 l -13.40625,12.1875 -5.53125,-2.15625 q 0.46875,-6.84375 0.75,-14.8125 0.375,-8.0625 0.375,-21.65625 v -87.75 q 0,-3.5625 -1.5,-6.5625 -1.40625,-3.09375 -3.84375,-4.6875 -1.78125,-1.125 -5.25,-1.96875 -3.375,-0.84375 -6.28125,-1.03125 v -6.84375 l 46.312501,-2.4375 1.40625,1.5 v 60.9375 h 0.5625 q 6.84375,-6.65625 14.0625,-9.75 7.21875,-3.09375 14.4375,-3.09375 19.6875,0 31.03125,13.40625 11.34375,13.40625 11.34375,36.28125 z m -33.65625,1.125 q 0,-7.125 -1.125,-13.6875 -1.03125,-6.65625 -3.5625,-11.71875 -2.53125,-5.0625 -6.65625,-8.0625 -4.125,-3.09375 -10.21875,-3.09375 -5.71875,0 -9.46875,1.875 -3.75,1.875 -6.75,5.53125 v 54.5625 q 0.5625,1.875 2.0625,4.96875 1.59375,3 3.1875,4.6875 2.25,2.4375 4.78125,3.75 2.53125,1.21875 7.125,1.21875 9.5625,0 15.09375,-10.40625 5.53125,-10.5 5.53125,-29.625 z"
         id="path977" />
      <path
         d="m 299.79297,384.42942 q -4.125,1.78125 -9.75,3.28125 -5.625,1.5 -11.90625,1.5 -11.53125,0 -16.96875,-3.375 -5.4375,-3.46875 -7.40625,-9.84375 h -0.5625 q -3.1875,3.1875 -6.1875,5.4375 -2.90625,2.25 -6.28125,3.84375 -4.40625,2.0625 -8.53125,3 -4.03125,1.03125 -11.34375,1.03125 -10.875,0 -18.5625,-6.375 -7.6875,-6.46875 -7.6875,-17.0625 0,-6.09375 1.6875,-10.3125 1.6875,-4.3125 4.78125,-7.59375 2.8125,-3 6.46875,-4.96875 3.75,-1.96875 8.15625,-3.65625 8.4375,-3.09375 20.25,-6.375 11.8125,-3.375 17.25,-6 v -9 q 0,-2.34375 -0.375,-6.1875 -0.375,-3.84375 -1.59375,-6.46875 -1.3125,-3 -4.125,-5.0625 -2.8125,-2.0625 -7.40625,-2.0625 -4.125,0 -6.9375,1.21875 -2.71875,1.125 -4.40625,2.34375 0.28125,1.875 1.59375,5.71875 1.3125,3.84375 1.3125,7.40625 0,1.59375 -0.84375,4.03125 -0.84375,2.34375 -2.4375,3.75 -2.15625,1.875 -4.875,2.90625 -2.625,1.03125 -8.15625,1.03125 -7.875,0 -11.90625,-3.75 -4.03125,-3.84375 -4.03125,-9.9375 0,-5.25 4.125,-9.375 4.21875,-4.21875 10.21875,-6.9375 5.90625,-2.8125 13.59375,-4.3125 7.6875,-1.59375 14.25,-1.59375 9.09375,0 16.6875,1.125 7.59375,1.03125 13.6875,4.40625 5.8125,3.28125 9.1875,9.5625 3.46875,6.1875 3.46875,16.21875 0,10.59375 -0.46875,25.125 -0.375,14.53125 -0.375,19.125 0,4.21875 1.21875,6.65625 1.3125,2.4375 3.9375,3.65625 1.59375,0.75 4.96875,0.9375 3.46875,0.0937 6.28125,0.0937 z m -46.59375,-48.84375 q -5.25,1.78125 -10.40625,4.125 -5.15625,2.25 -8.4375,4.78125 -3.46875,2.625 -5.4375,6.75 -1.96875,4.03125 -1.96875,9.5625 0,7.3125 3.28125,10.59375 3.375,3.28125 8.25,3.28125 5.15625,0 8.4375,-2.0625 3.375,-2.15625 5.90625,-5.25 z m 25.40625,-66 h -70.125 v -16.21875 h 70.125 z"
         id="path979" />
      <path
         d="m 427.29297,386.39817 h -44.15625 q -8.15625,-14.34375 -14.90625,-24.28125 -6.75,-10.03125 -12.75,-18.5625 l -5.625,4.78125 v 20.4375 q 0,3.375 0.9375,5.53125 1.03125,2.15625 3.84375,3.1875 1.6875,0.75 3.9375,1.3125 2.25,0.5625 4.5,0.75 v 6.84375 h -58.03125 v -6.84375 q 2.34375,-0.1875 4.6875,-0.46875 2.34375,-0.375 4.125,-0.9375 3,-1.03125 4.03125,-3.1875 1.125,-2.15625 1.125,-5.625 V 264.80442 q 0,-3.09375 -1.40625,-6.375 -1.3125,-3.375 -3.9375,-5.0625 -1.78125,-1.125 -5.34375,-1.875 -3.5625,-0.75 -6.46875,-0.9375 v -6.84375 l 46.59375,-2.4375 1.40625,1.5 v 96.75 q 6.9375,-6.1875 15.5625,-14.34375 8.71875,-8.15625 13.96875,-13.5 3.09375,-3.1875 3.375,-4.78125 0.375,-1.6875 0.375,-2.0625 0,-1.6875 -3,-2.8125 -2.90625,-1.125 -8.8125,-1.96875 v -6.65625 h 47.625 v 6.46875 q -9.375,2.625 -14.34375,4.96875 -4.875,2.25 -10.6875,6.09375 -3.84375,2.53125 -7.5,5.34375 -3.5625,2.71875 -8.25,6.84375 9.1875,13.3125 16.96875,24.65625 7.78125,11.34375 16.3125,24 2.90625,4.40625 7.21875,5.90625 4.3125,1.5 8.625,1.875 z"
         id="path981" />
      <path
         d="m 441.91797,298.08567 h -14.4375 v -11.34375 h 14.4375 v -30.9375 h 33.1875 v 30.9375 h 103.59375 v 11.15625 l -34.125,46.125 q 20.625,1.96875 31.125,9.84375 15,11.34375 15,31.03125 0,19.59375 -15.5625,30 -15.46875,10.5 -44.90625,10.5 -11.0625,0 -22.875,-1.875 -11.71875,-1.875 -24.5625,-5.625 v -28.96875 q -2.71875,0.1875 -5.71875,0.1875 -20.53125,0 -27.84375,-6.375 -7.3125,-6.46875 -7.3125,-23.625 z m 97.875,0 h -64.6875 v 61.03125 q 0,13.03125 2.0625,16.21875 2.0625,3.1875 7.5,3.1875 6,0 8.90625,-4.03125 2.90625,-4.03125 3.09375,-12.46875 h 13.96875 q -0.9375,15 -8.25,21 -3.1875,2.625 -8.25,4.125 1.03125,13.3125 8.34375,20.25 7.3125,7.03125 20.25,7.03125 14.25,0 22.03125,-7.96875 7.78125,-7.875 7.78125,-22.40625 0,-15.1875 -8.15625,-23.4375 -8.0625,-8.25 -22.96875,-8.25 h -6.1875 v -21.09375 z"
         id="path983" />
    </g>
    <text
       xml:space="preserve"
       transform="scale(0.26458333)"
       id="text22213"
       style="font-style:normal;font-variant:normal;font-weight:normal;font-stretch:normal;font-size:40px;line-height:25px;font-family:'TradeGothic LT CondEighteen';-inkscape-font-specification:'TradeGothic LT CondEighteen';letter-spacing:0px;word-spacing:0px;white-space:pre;shape-inside:url(#rect22215);fill:#000000;fill-opacity:1;stroke:none;stroke-width:1px;stroke-linecap:butt;stroke-linejoin:miter;stroke-opacity:1" />
    <text
       xml:space="preserve"
       transform="scale(0.26458333)"
       id="text27528"
       style="font-style:normal;font-variant:normal;font-weight:normal;font-stretch:normal;font-size:40px;line-height:25px;font-family:'TradeGothic LT CondEighteen';-inkscape-font-specification:'TradeGothic LT CondEighteen';letter-spacing:0px;word-spacing:0px;white-space:pre;shape-inside:url(#rect27530);fill:#000000;fill-opacity:1;stroke:none;stroke-width:1px;stroke-linecap:butt;stroke-linejoin:miter;stroke-opacity:1" />
    <text
       xml:space="preserve"
       transform="matrix(0.26458333,0,0,0.26458333,14.073881,64.646312)"
       id="text58438"
       style="fill:none;stroke:black;stroke-opacity:1;stroke-width:1px;stroke-linejoin:miter;stroke-linecap:butt;font-family:Georgia;font-size:40px;line-height:25px;letter-spacing:0px;word-spacing:0px;-inkscape-font-specification:'Georgia Bold';font-weight:bold;white-space:pre;shape-inside:url(#rect58440)" />
  </g>
  <style
     type="text/css"
     id="style25531">
	.st0{fill:#0D61FF;}
	.st1{fill:#FFFFFF;}
	.st2{fill:#262D33;}
</style>
</svg>
