<?xml version="1.0" encoding="UTF-8" standalone="no"?>
<!-- Created with Inkscape (http://www.inkscape.org/) -->

<svg
   width="116.46725mm"
   height="53.075409mm"
   viewBox="0 0 116.46725 53.075409"
   version="1.1"
   id="svg5"
   inkscape:version="1.1.2 (0a00cf5339, 2022-02-04)"
   sodipodi:docname="baktz-logo.svg"
   xmlns:inkscape="http://www.inkscape.org/namespaces/inkscape"
   xmlns:sodipodi="http://sodipodi.sourceforge.net/DTD/sodipodi-0.dtd"
   xmlns="http://www.w3.org/2000/svg"
   xmlns:svg="http://www.w3.org/2000/svg">
  <sodipodi:namedview
     id="namedview7"
     pagecolor="#ffffff"
     bordercolor="#666666"
     borderopacity="1.0"
     inkscape:pageshadow="2"
     inkscape:pageopacity="0.0"
     inkscape:pagecheckerboard="true"
     inkscape:document-units="mm"
     showgrid="false"
     showguides="true"
     inkscape:guide-bbox="true"
     inkscape:zoom="0.77771465"
     inkscape:cx="182.58625"
     inkscape:cy="423.67725"
     inkscape:window-width="3840"
     inkscape:window-height="2081"
     inkscape:window-x="0"
     inkscape:window-y="42"
     inkscape:window-maximized="1"
     inkscape:current-layer="layer1"
     showborder="true"
     fit-margin-top="0"
     fit-margin-left="0"
     fit-margin-right="0"
     fit-margin-bottom="0" />
  <defs
     id="defs2">
    <rect
       x="645.80103"
       y="291.29993"
       width="105.02448"
       height="48.339844"
       id="rect27530" />
    <rect
       x="702.00427"
       y="599.62579"
       width="233.13091"
       height="183.07094"
       id="rect22215" />
    <rect
       x="63.262058"
       y="273.17093"
       width="640.99396"
       height="333.69702"
       id="rect2299" />
  </defs>
  <g
     inkscape:label="Layer 1"
     inkscape:groupmode="layer"
     id="layer1"
     transform="translate(-14.1731,-64.646312)">
    <text
       xml:space="preserve"
       transform="matrix(0.26458333,0,0,0.26458333,-2.1680213,0.80945446)"
       id="text2297"
       style="font-style:normal;font-variant:normal;font-weight:normal;font-stretch:normal;font-size:192px;line-height:120px;font-family:Georgia;-inkscape-font-specification:Georgia;letter-spacing:0px;word-spacing:0px;white-space:pre;shape-inside:url(#rect2299);fill:#000000;fill-opacity:1;stroke:none;stroke-width:1.00157;stroke-linecap:butt;stroke-linejoin:miter;stroke-miterlimit:4;stroke-dasharray:none;stroke-opacity:1"><tspan
         x="63.261719"
         y="386.39817"
         id="tspan99703">bāk</tspan></text>
    <text
       xml:space="preserve"
       transform="scale(0.26458333)"
       id="text22213"
       style="font-style:normal;font-variant:normal;font-weight:normal;font-stretch:normal;font-size:40px;line-height:25px;font-family:'TradeGothic LT CondEighteen';-inkscape-font-specification:'TradeGothic LT CondEighteen';letter-spacing:0px;word-spacing:0px;white-space:pre;shape-inside:url(#rect22215);fill:#000000;fill-opacity:1;stroke:none;stroke-width:1px;stroke-linecap:butt;stroke-linejoin:miter;stroke-opacity:1" />
    <path
       style="fill:#000000;fill-opacity:1;stroke-width:0.217665"
       d="m 107.84023,69.482935 -7.81384,1.632251 v 1.175728 h 0.43499 c 0,0 1.91553,9e-5 1.91553,1.91553 v 4.287588 h -6.050943 c -0.10883,0 -0.217722,0.108899 -0.217722,0.217727 v 2.720888 h 6.290665 v 6.268671 8.510558 c 0,4.636234 2.9818,7.857704 8.20575,7.422384 1.11008,-0.0871 2.13305,-0.52224 3.0037,-1.08817 0.39178,-0.26119 0.63117,-0.67486 0.63117,-1.15371 v -1.458075 c -1.69778,1.131835 -3.13434,1.066165 -3.13434,1.066165 -3.3085,0 -3.24296,-4.200964 -3.24296,-4.200964 V 81.432647 h 15.23622 l -10.97017,11.057265 c -0.0216,1.458347 -0.0436,2.590492 -0.0436,2.612257 0,0.04351 0.0215,0.06508 0.065,0.06508 10.05607,1.697777 12.77707,8.206051 12.77707,10.099731 0,0 1.08808,9.20721 -8.11911,9.83846 0,0 -6.02902,0.2613 -7.09557,-2.1548 -0.0436,-0.087 2e-5,-0.17419 0.087,-0.21772 1.00125,-0.4571 1.67581,-1.34956 1.67581,-2.54671 0,-1.78484 -1.08814,-3.24343 -3.37362,-3.24343 -1.85014,0 -3.37407,1.45859 -3.37407,3.24343 0,0 -0.87042,7.74867 12.05882,7.53101 14.75761,-0.26118 13.84323,-12.64643 13.84323,-12.64643 h 4.8e-4 c -0.50062,-8.858923 -11.64545,-12.885585 -12.71199,-13.29915 -0.0435,-0.02179 -0.0435,-0.06513 -0.0215,-0.108628 l 11.4929,-11.536265 v -1.24081 c 0,-0.195895 -0.17399,-0.369904 -0.3699,-0.369904 h -21.17901 v -6.94339 z"
       id="path77529" />
    <text
       xml:space="preserve"
       transform="scale(0.26458333)"
       id="text27528"
       style="font-style:normal;font-variant:normal;font-weight:normal;font-stretch:normal;font-size:40px;line-height:25px;font-family:'TradeGothic LT CondEighteen';-inkscape-font-specification:'TradeGothic LT CondEighteen';letter-spacing:0px;word-spacing:0px;white-space:pre;shape-inside:url(#rect27530);fill:#000000;fill-opacity:1;stroke:none;stroke-width:1px;stroke-linecap:butt;stroke-linejoin:miter;stroke-opacity:1" />
  </g>
  <style
     type="text/css"
     id="style25531">
	.st0{fill:#0D61FF;}
	.st1{fill:#FFFFFF;}
	.st2{fill:#262D33;}
</style>
</svg>
